%TF.GenerationSoftware,KiCad,Pcbnew,9.0.6*%
%TF.CreationDate,2025-12-02T23:32:36+00:00*%
%TF.ProjectId,MyPCB,4d795043-422e-46b6-9963-61645f706362,rev?*%
%TF.SameCoordinates,Original*%
%TF.FileFunction,Copper,L1,Top*%
%TF.FilePolarity,Positive*%
%FSLAX46Y46*%
G04 Gerber Fmt 4.6, Leading zero omitted, Abs format (unit mm)*
G04 Created by KiCad (PCBNEW 9.0.6) date 2025-12-02 23:32:36*
%MOMM*%
%LPD*%
G01*
G04 APERTURE LIST*
G04 Aperture macros list*
%AMRoundRect*
0 Rectangle with rounded corners*
0 $1 Rounding radius*
0 $2 $3 $4 $5 $6 $7 $8 $9 X,Y pos of 4 corners*
0 Add a 4 corners polygon primitive as box body*
4,1,4,$2,$3,$4,$5,$6,$7,$8,$9,$2,$3,0*
0 Add four circle primitives for the rounded corners*
1,1,$1+$1,$2,$3*
1,1,$1+$1,$4,$5*
1,1,$1+$1,$6,$7*
1,1,$1+$1,$8,$9*
0 Add four rect primitives between the rounded corners*
20,1,$1+$1,$2,$3,$4,$5,0*
20,1,$1+$1,$4,$5,$6,$7,0*
20,1,$1+$1,$6,$7,$8,$9,0*
20,1,$1+$1,$8,$9,$2,$3,0*%
G04 Aperture macros list end*
%TA.AperFunction,ComponentPad*%
%ADD10O,1.700000X1.700000*%
%TD*%
%TA.AperFunction,ComponentPad*%
%ADD11R,1.700000X1.700000*%
%TD*%
%TA.AperFunction,SMDPad,CuDef*%
%ADD12R,1.600000X0.850000*%
%TD*%
%TA.AperFunction,ComponentPad*%
%ADD13C,2.200000*%
%TD*%
%TA.AperFunction,SMDPad,CuDef*%
%ADD14RoundRect,0.152400X1.063600X0.609600X-1.063600X0.609600X-1.063600X-0.609600X1.063600X-0.609600X0*%
%TD*%
%TA.AperFunction,ComponentPad*%
%ADD15C,1.524000*%
%TD*%
%TA.AperFunction,SMDPad,CuDef*%
%ADD16RoundRect,0.152400X-1.063600X-0.609600X1.063600X-0.609600X1.063600X0.609600X-1.063600X0.609600X0*%
%TD*%
%TA.AperFunction,ViaPad*%
%ADD17C,0.600000*%
%TD*%
%TA.AperFunction,Conductor*%
%ADD18C,0.200000*%
%TD*%
G04 APERTURE END LIST*
D10*
%TO.P,J1,4,Pin_4*%
%TO.N,SDA*%
X169800000Y-85950000D03*
%TO.P,J1,3,Pin_3*%
%TO.N,SCL*%
X169800000Y-88490000D03*
%TO.P,J1,2,Pin_2*%
%TO.N,3V3*%
X169800000Y-91030000D03*
D11*
%TO.P,J1,1,Pin_1*%
%TO.N,GND*%
X169800000Y-93570000D03*
%TD*%
D12*
%TO.P,D1,1,DOUT*%
%TO.N,Net-(D1-DOUT)*%
X235390000Y-86300000D03*
%TO.P,D1,2,VSS*%
%TO.N,GND*%
X235390000Y-88050000D03*
%TO.P,D1,3,DIN*%
%TO.N,Net-(D1-DIN)*%
X238890000Y-88050000D03*
%TO.P,D1,4,VDD*%
%TO.N,+5V*%
X238890000Y-86300000D03*
%TD*%
%TO.P,D2,1,DOUT*%
%TO.N,Net-(D2-DOUT)*%
X235390000Y-90772500D03*
%TO.P,D2,2,VSS*%
%TO.N,GND*%
X235390000Y-92522500D03*
%TO.P,D2,3,DIN*%
%TO.N,Net-(D1-DOUT)*%
X238890000Y-92522500D03*
%TO.P,D2,4,VDD*%
%TO.N,+5V*%
X238890000Y-90772500D03*
%TD*%
%TO.P,D3,1,DOUT*%
%TO.N,Net-(D3-DOUT)*%
X235370000Y-95245000D03*
%TO.P,D3,2,VSS*%
%TO.N,GND*%
X235370000Y-96995000D03*
%TO.P,D3,3,DIN*%
%TO.N,Net-(D2-DOUT)*%
X238870000Y-96995000D03*
%TO.P,D3,4,VDD*%
%TO.N,+5V*%
X238870000Y-95245000D03*
%TD*%
%TO.P,D4,1,DOUT*%
%TO.N,unconnected-(D4-DOUT-Pad1)*%
X235320000Y-99717500D03*
%TO.P,D4,2,VSS*%
%TO.N,GND*%
X235320000Y-101467500D03*
%TO.P,D4,3,DIN*%
%TO.N,Net-(D3-DOUT)*%
X238820000Y-101467500D03*
%TO.P,D4,4,VDD*%
%TO.N,+5V*%
X238820000Y-99717500D03*
%TD*%
D13*
%TO.P,SW2,1,1*%
%TO.N,GND*%
X193493333Y-110490000D03*
%TO.P,SW2,2,2*%
%TO.N,Net-(U1-GPIO28{slash}ADC2{slash}A2)*%
X187143333Y-113030000D03*
%TD*%
%TO.P,SW3,1,1*%
%TO.N,GND*%
X212530000Y-110490000D03*
%TO.P,SW3,2,2*%
%TO.N,Net-(U1-GPIO27{slash}ADC1{slash}A1)*%
X206180000Y-113030000D03*
%TD*%
%TO.P,SW4,1,1*%
%TO.N,GND*%
X231600000Y-110490000D03*
%TO.P,SW4,2,2*%
%TO.N,Net-(U1-GPIO26{slash}ADC0{slash}A0)*%
X225250000Y-113030000D03*
%TD*%
D14*
%TO.P,U1,1,GPIO26/ADC0/A0*%
%TO.N,Net-(U1-GPIO26{slash}ADC0{slash}A0)*%
X213422332Y-86330000D03*
D15*
X214257332Y-86330000D03*
D14*
%TO.P,U1,2,GPIO27/ADC1/A1*%
%TO.N,Net-(U1-GPIO27{slash}ADC1{slash}A1)*%
X213422332Y-88870000D03*
D15*
X214257332Y-88870000D03*
D14*
%TO.P,U1,3,GPIO28/ADC2/A2*%
%TO.N,Net-(U1-GPIO28{slash}ADC2{slash}A2)*%
X213422332Y-91410000D03*
D15*
X214257332Y-91410000D03*
D14*
%TO.P,U1,4,GPIO29/ADC3/A3*%
%TO.N,Net-(U1-GPIO29{slash}ADC3{slash}A3)*%
X213422332Y-93950000D03*
D15*
X214257332Y-93950000D03*
D14*
%TO.P,U1,5,GPIO6/SDA*%
%TO.N,SDA*%
X213422332Y-96490000D03*
D15*
X214257332Y-96490000D03*
D14*
%TO.P,U1,6,GPIO7/SCL*%
%TO.N,SCL*%
X213422332Y-99030000D03*
D15*
X214257332Y-99030000D03*
D14*
%TO.P,U1,7,GPIO0/TX*%
%TO.N,Net-(D1-DIN)*%
X213422332Y-101570000D03*
D15*
X214257332Y-101570000D03*
%TO.P,U1,8,GPIO1/RX*%
%TO.N,unconnected-(U1-GPIO1{slash}RX-Pad8)*%
X229497332Y-101570000D03*
D16*
X230332332Y-101570000D03*
D15*
%TO.P,U1,9,GPIO2/SCK*%
%TO.N,unconnected-(U1-GPIO2{slash}SCK-Pad9)*%
X229497332Y-99030000D03*
D16*
X230332332Y-99030000D03*
D15*
%TO.P,U1,10,GPIO4/MISO*%
%TO.N,unconnected-(U1-GPIO4{slash}MISO-Pad10)*%
X229497332Y-96490000D03*
D16*
X230332332Y-96490000D03*
D15*
%TO.P,U1,11,GPIO3/MOSI*%
%TO.N,unconnected-(U1-GPIO3{slash}MOSI-Pad11)*%
X229497332Y-93950000D03*
D16*
X230332332Y-93950000D03*
D15*
%TO.P,U1,12,3V3*%
%TO.N,3V3*%
X229497332Y-91410000D03*
D16*
X230332332Y-91410000D03*
D15*
%TO.P,U1,13,GND*%
%TO.N,GND*%
X229497332Y-88870000D03*
D16*
X230332332Y-88870000D03*
D15*
%TO.P,U1,14,VBUS*%
%TO.N,+5V*%
X229497332Y-86330000D03*
D16*
X230332332Y-86330000D03*
%TD*%
D13*
%TO.P,SW1,1,1*%
%TO.N,GND*%
X174420000Y-110490000D03*
%TO.P,SW1,2,2*%
%TO.N,Net-(U1-GPIO29{slash}ADC3{slash}A3)*%
X168070000Y-113030000D03*
%TD*%
D17*
%TO.N,Net-(D1-DIN)*%
X225730000Y-85780000D03*
%TD*%
D18*
%TO.N,SCL*%
X169800000Y-88490000D02*
X203103706Y-88490000D01*
%TO.N,3V3*%
X169800000Y-91030000D02*
X168649000Y-89879000D01*
X169323240Y-84799000D02*
X222886332Y-84799000D01*
%TO.N,SCL*%
X203103706Y-88490000D02*
X213643706Y-99030000D01*
%TO.N,3V3*%
X168649000Y-89879000D02*
X168649000Y-85473240D01*
%TO.N,SDA*%
X169800000Y-85950000D02*
X203103706Y-85950000D01*
%TO.N,3V3*%
X168649000Y-85473240D02*
X169323240Y-84799000D01*
%TO.N,SDA*%
X203103706Y-85950000D02*
X213643706Y-96490000D01*
%TO.N,*%
X176370000Y-95940000D02*
X176490000Y-95820000D01*
%TO.N,GND*%
X166786332Y-96583668D02*
X166786332Y-102386000D01*
%TO.N,*%
X176490000Y-95460000D02*
X176490000Y-95820000D01*
%TO.N,GND*%
X169800000Y-93570000D02*
X166786332Y-96583668D01*
X231600000Y-105187500D02*
X235320000Y-101467500D01*
X231600000Y-110490000D02*
X231600000Y-105187500D01*
X162960000Y-106212332D02*
X162960000Y-122550000D01*
X166786332Y-102386000D02*
X162960000Y-106212332D01*
X182770000Y-122550000D02*
X184625000Y-120695000D01*
X162960000Y-122550000D02*
X182770000Y-122550000D01*
%TO.N,+5V*%
X239212500Y-99717500D02*
X238820000Y-99717500D01*
X240570000Y-96945000D02*
X240570000Y-98360000D01*
X240570000Y-98360000D02*
X239212500Y-99717500D01*
X238870000Y-95245000D02*
X240570000Y-96945000D01*
X238870000Y-94480000D02*
X238870000Y-95245000D01*
X239322500Y-90772500D02*
X240950000Y-92400000D01*
X238890000Y-90772500D02*
X239322500Y-90772500D01*
X240950000Y-92400000D02*
X238870000Y-94480000D01*
X237420000Y-89302500D02*
X238890000Y-90772500D01*
X238890000Y-86300000D02*
X237420000Y-87770000D01*
X237420000Y-87770000D02*
X237420000Y-89302500D01*
X230259331Y-85568001D02*
X229497332Y-86330000D01*
X238158000Y-85568000D02*
X230259331Y-85568001D01*
X238890000Y-86300000D02*
X238158000Y-85568000D01*
%TO.N,Net-(D1-DIN)*%
X227290000Y-84220000D02*
X225730000Y-85780000D01*
X240030000Y-84220000D02*
X227290000Y-84220000D01*
X241029000Y-85219000D02*
X240030000Y-84220000D01*
X241029000Y-85911000D02*
X241029000Y-85219000D01*
X238890000Y-88050000D02*
X241029000Y-85911000D01*
%TO.N,GND*%
X230317332Y-88050000D02*
X229497332Y-88870000D01*
X235390000Y-88050000D02*
X230317332Y-88050000D01*
X234289000Y-91421500D02*
X235390000Y-92522500D01*
X234289000Y-89151000D02*
X234289000Y-91421500D01*
X235390000Y-88050000D02*
X234289000Y-89151000D01*
X234269000Y-95894000D02*
X235370000Y-96995000D01*
X235390000Y-92522500D02*
X234269000Y-93643500D01*
X234269000Y-93643500D02*
X234269000Y-95894000D01*
X234219000Y-100366500D02*
X235320000Y-101467500D01*
X234219000Y-98146000D02*
X234219000Y-100366500D01*
X235370000Y-96995000D02*
X234219000Y-98146000D01*
%TO.N,Net-(D3-DOUT)*%
X236490000Y-99137500D02*
X238820000Y-101467500D01*
X236490000Y-96365000D02*
X236490000Y-99137500D01*
X235370000Y-95245000D02*
X236490000Y-96365000D01*
%TO.N,Net-(D2-DOUT)*%
X236520000Y-94645000D02*
X238870000Y-96995000D01*
X235390000Y-90772500D02*
X236520000Y-91902500D01*
X236520000Y-91902500D02*
X236520000Y-94645000D01*
%TO.N,Net-(D1-DOUT)*%
X236570000Y-90202500D02*
X238890000Y-92522500D01*
X236570000Y-87480000D02*
X236570000Y-90202500D01*
X235390000Y-86300000D02*
X236570000Y-87480000D01*
%TO.N,GND*%
X217230000Y-110490000D02*
X219820000Y-113080000D01*
X200400000Y-121090000D02*
X219820000Y-121090000D01*
X230574962Y-88870000D02*
X229497332Y-88870000D01*
X219820000Y-121090000D02*
X235520000Y-121090000D01*
X184625000Y-120695000D02*
X185020000Y-121090000D01*
X236620000Y-116540000D02*
X236620000Y-112290000D01*
X229497332Y-88870000D02*
X230332332Y-88870000D01*
X174420000Y-110490000D02*
X184625000Y-120695000D01*
X198810000Y-110490000D02*
X200400000Y-112080000D01*
X193493333Y-110490000D02*
X198810000Y-110490000D01*
X235520000Y-121090000D02*
X235520000Y-117640000D01*
X219820000Y-113080000D02*
X219820000Y-121090000D01*
X200400000Y-112080000D02*
X200400000Y-121090000D01*
X236620000Y-112290000D02*
X234820000Y-110490000D01*
X234820000Y-110490000D02*
X231600000Y-110490000D01*
X185020000Y-121090000D02*
X200400000Y-121090000D01*
X235520000Y-117640000D02*
X236620000Y-116540000D01*
X212530000Y-110490000D02*
X217230000Y-110490000D01*
%TO.N,SDA*%
X213643706Y-96490000D02*
X214257332Y-96490000D01*
%TO.N,SCL*%
X213643706Y-99030000D02*
X214257332Y-99030000D01*
%TO.N,3V3*%
X222886332Y-84799000D02*
X229497332Y-91410000D01*
%TO.N,Net-(U1-GPIO26{slash}ADC0{slash}A0)*%
X214257332Y-86330000D02*
X224255332Y-96328000D01*
X224255332Y-96328000D02*
X224255332Y-112035332D01*
X224255332Y-112035332D02*
X225250000Y-113030000D01*
%TO.N,Net-(U1-GPIO27{slash}ADC1{slash}A1)*%
X205185332Y-110656667D02*
X205185332Y-112035332D01*
X205185332Y-112035332D02*
X206180000Y-113030000D01*
X222610000Y-97222668D02*
X214257332Y-88870000D01*
X205185332Y-110656667D02*
X209061999Y-106780000D01*
X222610000Y-106780000D02*
X222610000Y-97222668D01*
X209061999Y-106780000D02*
X222610000Y-106780000D01*
%TO.N,Net-(U1-GPIO28{slash}ADC2{slash}A2)*%
X207330000Y-105480000D02*
X204770000Y-108040000D01*
X187143333Y-109526003D02*
X187143333Y-113030000D01*
X186640000Y-108040000D02*
X186148665Y-108531335D01*
X214257332Y-91410000D02*
X220660000Y-97812668D01*
X220660000Y-105480000D02*
X207330000Y-105480000D01*
X220660000Y-97812668D02*
X220660000Y-105480000D01*
X186148665Y-108531335D02*
X187143333Y-109526003D01*
X204770000Y-108040000D02*
X186640000Y-108040000D01*
%TO.N,Net-(U1-GPIO29{slash}ADC3{slash}A3)*%
X167075332Y-110656667D02*
X167075332Y-112035332D01*
X167075332Y-110656667D02*
X170761999Y-106970000D01*
X204120000Y-106970000D02*
X206440000Y-104650000D01*
X219780000Y-104650000D02*
X219780000Y-99472668D01*
X170761999Y-106970000D02*
X204120000Y-106970000D01*
X167075332Y-112035332D02*
X168070000Y-113030000D01*
X219780000Y-99472668D02*
X214257332Y-93950000D01*
X206440000Y-104650000D02*
X219780000Y-104650000D01*
%TD*%
M02*
