M48
; DRILL file {KiCad 9.0.6} date 2025-12-02T23:32:15+0000
; FORMAT={-:-/ absolute / metric / decimal}
; #@! TF.CreationDate,2025-12-02T23:32:15+00:00
; #@! TF.GenerationSoftware,Kicad,Pcbnew,9.0.6
; #@! TF.FileFunction,Plated,1,2,PTH
FMAT,2
METRIC
; #@! TA.AperFunction,Plated,PTH,ViaDrill
T1C0.300
; #@! TA.AperFunction,Plated,PTH,ComponentDrill
T2C0.889
; #@! TA.AperFunction,Plated,PTH,ComponentDrill
T3C1.000
; #@! TA.AperFunction,Plated,PTH,ComponentDrill
T4C1.500
%
G90
G05
T1
X225.73Y-85.78
T2
X214.257Y-86.33
X214.257Y-88.87
X214.257Y-91.41
X214.257Y-93.95
X214.257Y-96.49
X214.257Y-99.03
X214.257Y-101.57
X229.497Y-86.33
X229.497Y-88.87
X229.497Y-91.41
X229.497Y-93.95
X229.497Y-96.49
X229.497Y-99.03
X229.497Y-101.57
T3
X169.8Y-85.95
X169.8Y-88.49
X169.8Y-91.03
X169.8Y-93.57
T4
X168.07Y-113.03
X174.42Y-110.49
X187.143Y-113.03
X193.493Y-110.49
X206.18Y-113.03
X212.53Y-110.49
X225.25Y-113.03
X231.6Y-110.49
M30
