%TF.GenerationSoftware,KiCad,Pcbnew,9.0.6*%
%TF.CreationDate,2025-12-02T23:32:36+00:00*%
%TF.ProjectId,MyPCB,4d795043-422e-46b6-9963-61645f706362,rev?*%
%TF.SameCoordinates,Original*%
%TF.FileFunction,Soldermask,Top*%
%TF.FilePolarity,Negative*%
%FSLAX46Y46*%
G04 Gerber Fmt 4.6, Leading zero omitted, Abs format (unit mm)*
G04 Created by KiCad (PCBNEW 9.0.6) date 2025-12-02 23:32:36*
%MOMM*%
%LPD*%
G01*
G04 APERTURE LIST*
G04 Aperture macros list*
%AMRoundRect*
0 Rectangle with rounded corners*
0 $1 Rounding radius*
0 $2 $3 $4 $5 $6 $7 $8 $9 X,Y pos of 4 corners*
0 Add a 4 corners polygon primitive as box body*
4,1,4,$2,$3,$4,$5,$6,$7,$8,$9,$2,$3,0*
0 Add four circle primitives for the rounded corners*
1,1,$1+$1,$2,$3*
1,1,$1+$1,$4,$5*
1,1,$1+$1,$6,$7*
1,1,$1+$1,$8,$9*
0 Add four rect primitives between the rounded corners*
20,1,$1+$1,$2,$3,$4,$5,0*
20,1,$1+$1,$4,$5,$6,$7,0*
20,1,$1+$1,$6,$7,$8,$9,0*
20,1,$1+$1,$8,$9,$2,$3,0*%
G04 Aperture macros list end*
%ADD10O,1.700000X1.700000*%
%ADD11R,1.700000X1.700000*%
%ADD12R,1.600000X0.850000*%
%ADD13C,1.700000*%
%ADD14C,4.000000*%
%ADD15C,2.200000*%
%ADD16RoundRect,0.152400X1.063600X0.609600X-1.063600X0.609600X-1.063600X-0.609600X1.063600X-0.609600X0*%
%ADD17C,1.524000*%
%ADD18RoundRect,0.152400X-1.063600X-0.609600X1.063600X-0.609600X1.063600X0.609600X-1.063600X0.609600X0*%
G04 APERTURE END LIST*
D10*
%TO.C,J1*%
X169800000Y-85950000D03*
X169800000Y-88490000D03*
X169800000Y-91030000D03*
D11*
X169800000Y-93570000D03*
%TD*%
D12*
%TO.C,D1*%
X235390000Y-86300000D03*
X235390000Y-88050000D03*
X238890000Y-88050000D03*
X238890000Y-86300000D03*
%TD*%
%TO.C,D2*%
X235390000Y-90772500D03*
X235390000Y-92522500D03*
X238890000Y-92522500D03*
X238890000Y-90772500D03*
%TD*%
%TO.C,D3*%
X235370000Y-95245000D03*
X235370000Y-96995000D03*
X238870000Y-96995000D03*
X238870000Y-95245000D03*
%TD*%
%TO.C,D4*%
X235320000Y-99717500D03*
X235320000Y-101467500D03*
X238820000Y-101467500D03*
X238820000Y-99717500D03*
%TD*%
D13*
%TO.C,SW2*%
X185873333Y-115570000D03*
D14*
X190953333Y-115570000D03*
D13*
X196033333Y-115570000D03*
D15*
X193493333Y-110490000D03*
X187143333Y-113030000D03*
%TD*%
D13*
%TO.C,SW3*%
X204910000Y-115570000D03*
D14*
X209990000Y-115570000D03*
D13*
X215070000Y-115570000D03*
D15*
X212530000Y-110490000D03*
X206180000Y-113030000D03*
%TD*%
D13*
%TO.C,SW4*%
X223980000Y-115570000D03*
D14*
X229060000Y-115570000D03*
D13*
X234140000Y-115570000D03*
D15*
X231600000Y-110490000D03*
X225250000Y-113030000D03*
%TD*%
D16*
%TO.C,U1*%
X213422332Y-86330000D03*
D17*
X214257332Y-86330000D03*
D16*
X213422332Y-88870000D03*
D17*
X214257332Y-88870000D03*
D16*
X213422332Y-91410000D03*
D17*
X214257332Y-91410000D03*
D16*
X213422332Y-93950000D03*
D17*
X214257332Y-93950000D03*
D16*
X213422332Y-96490000D03*
D17*
X214257332Y-96490000D03*
D16*
X213422332Y-99030000D03*
D17*
X214257332Y-99030000D03*
D16*
X213422332Y-101570000D03*
D17*
X214257332Y-101570000D03*
X229497332Y-101570000D03*
D18*
X230332332Y-101570000D03*
D17*
X229497332Y-99030000D03*
D18*
X230332332Y-99030000D03*
D17*
X229497332Y-96490000D03*
D18*
X230332332Y-96490000D03*
D17*
X229497332Y-93950000D03*
D18*
X230332332Y-93950000D03*
D17*
X229497332Y-91410000D03*
D18*
X230332332Y-91410000D03*
D17*
X229497332Y-88870000D03*
D18*
X230332332Y-88870000D03*
D17*
X229497332Y-86330000D03*
D18*
X230332332Y-86330000D03*
%TD*%
D13*
%TO.C,SW1*%
X166800000Y-115570000D03*
D14*
X171880000Y-115570000D03*
D13*
X176960000Y-115570000D03*
D15*
X174420000Y-110490000D03*
X168070000Y-113030000D03*
%TD*%
M02*
