%TF.GenerationSoftware,KiCad,Pcbnew,9.0.6*%
%TF.CreationDate,2025-12-02T23:32:15+00:00*%
%TF.ProjectId,MyPCB,4d795043-422e-46b6-9963-61645f706362,rev?*%
%TF.SameCoordinates,Original*%
%TF.FileFunction,Drillmap*%
%TF.FilePolarity,Positive*%
%FSLAX45Y45*%
G04 Gerber Fmt 4.5, Leading zero omitted, Abs format (unit mm)*
G04 Created by KiCad (PCBNEW 9.0.6) date 2025-12-02 23:32:15*
%MOMM*%
%LPD*%
G01*
G04 APERTURE LIST*
%ADD10C,0.050000*%
%ADD11C,0.200000*%
%ADD12C,0.100000*%
%ADD13C,0.150000*%
G04 APERTURE END LIST*
D10*
X15920000Y-8339000D02*
X24163000Y-8339000D01*
X24163000Y-12674000D01*
X15920000Y-12674000D01*
X15920000Y-8339000D01*
D11*
D12*
X22558000Y-8563000D02*
X22588000Y-8593000D01*
X22588000Y-8563000D02*
X22558000Y-8593000D01*
X21470183Y-8633000D02*
G75*
G02*
X21381283Y-8633000I-44450J0D01*
G01*
X21381283Y-8633000D02*
G75*
G02*
X21470183Y-8633000I44450J0D01*
G01*
X21470183Y-8887000D02*
G75*
G02*
X21381283Y-8887000I-44450J0D01*
G01*
X21381283Y-8887000D02*
G75*
G02*
X21470183Y-8887000I44450J0D01*
G01*
X21470183Y-9141000D02*
G75*
G02*
X21381283Y-9141000I-44450J0D01*
G01*
X21381283Y-9141000D02*
G75*
G02*
X21470183Y-9141000I44450J0D01*
G01*
X21470183Y-9395000D02*
G75*
G02*
X21381283Y-9395000I-44450J0D01*
G01*
X21381283Y-9395000D02*
G75*
G02*
X21470183Y-9395000I44450J0D01*
G01*
X21470183Y-9649000D02*
G75*
G02*
X21381283Y-9649000I-44450J0D01*
G01*
X21381283Y-9649000D02*
G75*
G02*
X21470183Y-9649000I44450J0D01*
G01*
X21470183Y-9903000D02*
G75*
G02*
X21381283Y-9903000I-44450J0D01*
G01*
X21381283Y-9903000D02*
G75*
G02*
X21470183Y-9903000I44450J0D01*
G01*
X21470183Y-10157000D02*
G75*
G02*
X21381283Y-10157000I-44450J0D01*
G01*
X21381283Y-10157000D02*
G75*
G02*
X21470183Y-10157000I44450J0D01*
G01*
X22994183Y-8633000D02*
G75*
G02*
X22905283Y-8633000I-44450J0D01*
G01*
X22905283Y-8633000D02*
G75*
G02*
X22994183Y-8633000I44450J0D01*
G01*
X22994183Y-8887000D02*
G75*
G02*
X22905283Y-8887000I-44450J0D01*
G01*
X22905283Y-8887000D02*
G75*
G02*
X22994183Y-8887000I44450J0D01*
G01*
X22994183Y-9141000D02*
G75*
G02*
X22905283Y-9141000I-44450J0D01*
G01*
X22905283Y-9141000D02*
G75*
G02*
X22994183Y-9141000I44450J0D01*
G01*
X22994183Y-9395000D02*
G75*
G02*
X22905283Y-9395000I-44450J0D01*
G01*
X22905283Y-9395000D02*
G75*
G02*
X22994183Y-9395000I44450J0D01*
G01*
X22994183Y-9649000D02*
G75*
G02*
X22905283Y-9649000I-44450J0D01*
G01*
X22905283Y-9649000D02*
G75*
G02*
X22994183Y-9649000I44450J0D01*
G01*
X22994183Y-9903000D02*
G75*
G02*
X22905283Y-9903000I-44450J0D01*
G01*
X22905283Y-9903000D02*
G75*
G02*
X22994183Y-9903000I44450J0D01*
G01*
X22994183Y-10157000D02*
G75*
G02*
X22905283Y-10157000I-44450J0D01*
G01*
X22905283Y-10157000D02*
G75*
G02*
X22994183Y-10157000I44450J0D01*
G01*
X16980000Y-8545000D02*
X16980000Y-8645000D01*
X16930000Y-8595000D02*
X17030000Y-8595000D01*
X16980000Y-8799000D02*
X16980000Y-8899000D01*
X16930000Y-8849000D02*
X17030000Y-8849000D01*
X16980000Y-9053000D02*
X16980000Y-9153000D01*
X16930000Y-9103000D02*
X17030000Y-9103000D01*
X16980000Y-9307000D02*
X16980000Y-9407000D01*
X16930000Y-9357000D02*
X17030000Y-9357000D01*
D13*
X16860034Y-11356033D02*
X16860034Y-11249966D01*
X16753966Y-11249966D01*
X16753966Y-11356033D01*
X16860034Y-11356033D01*
X17495034Y-11102034D02*
X17495034Y-10995967D01*
X17388967Y-10995967D01*
X17388967Y-11102034D01*
X17495034Y-11102034D01*
X18767367Y-11356033D02*
X18767367Y-11249966D01*
X18661300Y-11249966D01*
X18661300Y-11356033D01*
X18767367Y-11356033D01*
X19402367Y-11102034D02*
X19402367Y-10995967D01*
X19296300Y-10995967D01*
X19296300Y-11102034D01*
X19402367Y-11102034D01*
X20671034Y-11356033D02*
X20671034Y-11249966D01*
X20564967Y-11249966D01*
X20564967Y-11356033D01*
X20671034Y-11356033D01*
X21306034Y-11102034D02*
X21306034Y-10995967D01*
X21199967Y-10995967D01*
X21199967Y-11102034D01*
X21306034Y-11102034D01*
X22578033Y-11356033D02*
X22578033Y-11249966D01*
X22471966Y-11249966D01*
X22471966Y-11356033D01*
X22578033Y-11356033D01*
X23213033Y-11102034D02*
X23213033Y-10995967D01*
X23106966Y-10995967D01*
X23106966Y-11102034D01*
X23213033Y-11102034D01*
D11*
X16178277Y-12987984D02*
X16178277Y-12787984D01*
X16178277Y-12787984D02*
X16225896Y-12787984D01*
X16225896Y-12787984D02*
X16254467Y-12797508D01*
X16254467Y-12797508D02*
X16273515Y-12816555D01*
X16273515Y-12816555D02*
X16283039Y-12835603D01*
X16283039Y-12835603D02*
X16292562Y-12873698D01*
X16292562Y-12873698D02*
X16292562Y-12902269D01*
X16292562Y-12902269D02*
X16283039Y-12940365D01*
X16283039Y-12940365D02*
X16273515Y-12959412D01*
X16273515Y-12959412D02*
X16254467Y-12978460D01*
X16254467Y-12978460D02*
X16225896Y-12987984D01*
X16225896Y-12987984D02*
X16178277Y-12987984D01*
X16378277Y-12987984D02*
X16378277Y-12854650D01*
X16378277Y-12892746D02*
X16387801Y-12873698D01*
X16387801Y-12873698D02*
X16397324Y-12864174D01*
X16397324Y-12864174D02*
X16416372Y-12854650D01*
X16416372Y-12854650D02*
X16435420Y-12854650D01*
X16502086Y-12987984D02*
X16502086Y-12854650D01*
X16502086Y-12787984D02*
X16492562Y-12797508D01*
X16492562Y-12797508D02*
X16502086Y-12807031D01*
X16502086Y-12807031D02*
X16511610Y-12797508D01*
X16511610Y-12797508D02*
X16502086Y-12787984D01*
X16502086Y-12787984D02*
X16502086Y-12807031D01*
X16625896Y-12987984D02*
X16606848Y-12978460D01*
X16606848Y-12978460D02*
X16597324Y-12959412D01*
X16597324Y-12959412D02*
X16597324Y-12787984D01*
X16730658Y-12987984D02*
X16711610Y-12978460D01*
X16711610Y-12978460D02*
X16702086Y-12959412D01*
X16702086Y-12959412D02*
X16702086Y-12787984D01*
X16959229Y-12987984D02*
X16959229Y-12787984D01*
X16959229Y-12787984D02*
X17025896Y-12930841D01*
X17025896Y-12930841D02*
X17092563Y-12787984D01*
X17092563Y-12787984D02*
X17092563Y-12987984D01*
X17273515Y-12987984D02*
X17273515Y-12883222D01*
X17273515Y-12883222D02*
X17263991Y-12864174D01*
X17263991Y-12864174D02*
X17244944Y-12854650D01*
X17244944Y-12854650D02*
X17206848Y-12854650D01*
X17206848Y-12854650D02*
X17187801Y-12864174D01*
X17273515Y-12978460D02*
X17254467Y-12987984D01*
X17254467Y-12987984D02*
X17206848Y-12987984D01*
X17206848Y-12987984D02*
X17187801Y-12978460D01*
X17187801Y-12978460D02*
X17178277Y-12959412D01*
X17178277Y-12959412D02*
X17178277Y-12940365D01*
X17178277Y-12940365D02*
X17187801Y-12921317D01*
X17187801Y-12921317D02*
X17206848Y-12911793D01*
X17206848Y-12911793D02*
X17254467Y-12911793D01*
X17254467Y-12911793D02*
X17273515Y-12902269D01*
X17368753Y-12854650D02*
X17368753Y-13054650D01*
X17368753Y-12864174D02*
X17387801Y-12854650D01*
X17387801Y-12854650D02*
X17425896Y-12854650D01*
X17425896Y-12854650D02*
X17444944Y-12864174D01*
X17444944Y-12864174D02*
X17454467Y-12873698D01*
X17454467Y-12873698D02*
X17463991Y-12892746D01*
X17463991Y-12892746D02*
X17463991Y-12949888D01*
X17463991Y-12949888D02*
X17454467Y-12968936D01*
X17454467Y-12968936D02*
X17444944Y-12978460D01*
X17444944Y-12978460D02*
X17425896Y-12987984D01*
X17425896Y-12987984D02*
X17387801Y-12987984D01*
X17387801Y-12987984D02*
X17368753Y-12978460D01*
X17549705Y-12968936D02*
X17559229Y-12978460D01*
X17559229Y-12978460D02*
X17549705Y-12987984D01*
X17549705Y-12987984D02*
X17540182Y-12978460D01*
X17540182Y-12978460D02*
X17549705Y-12968936D01*
X17549705Y-12968936D02*
X17549705Y-12987984D01*
X17549705Y-12864174D02*
X17559229Y-12873698D01*
X17559229Y-12873698D02*
X17549705Y-12883222D01*
X17549705Y-12883222D02*
X17540182Y-12873698D01*
X17540182Y-12873698D02*
X17549705Y-12864174D01*
X17549705Y-12864174D02*
X17549705Y-12883222D01*
D12*
X15887500Y-13301500D02*
X15917500Y-13331500D01*
X15917500Y-13301500D02*
X15887500Y-13331500D01*
D11*
X16216372Y-13207984D02*
X16235420Y-13207984D01*
X16235420Y-13207984D02*
X16254467Y-13217508D01*
X16254467Y-13217508D02*
X16263991Y-13227031D01*
X16263991Y-13227031D02*
X16273515Y-13246079D01*
X16273515Y-13246079D02*
X16283039Y-13284174D01*
X16283039Y-13284174D02*
X16283039Y-13331793D01*
X16283039Y-13331793D02*
X16273515Y-13369888D01*
X16273515Y-13369888D02*
X16263991Y-13388936D01*
X16263991Y-13388936D02*
X16254467Y-13398460D01*
X16254467Y-13398460D02*
X16235420Y-13407984D01*
X16235420Y-13407984D02*
X16216372Y-13407984D01*
X16216372Y-13407984D02*
X16197324Y-13398460D01*
X16197324Y-13398460D02*
X16187801Y-13388936D01*
X16187801Y-13388936D02*
X16178277Y-13369888D01*
X16178277Y-13369888D02*
X16168753Y-13331793D01*
X16168753Y-13331793D02*
X16168753Y-13284174D01*
X16168753Y-13284174D02*
X16178277Y-13246079D01*
X16178277Y-13246079D02*
X16187801Y-13227031D01*
X16187801Y-13227031D02*
X16197324Y-13217508D01*
X16197324Y-13217508D02*
X16216372Y-13207984D01*
X16368753Y-13388936D02*
X16378277Y-13398460D01*
X16378277Y-13398460D02*
X16368753Y-13407984D01*
X16368753Y-13407984D02*
X16359229Y-13398460D01*
X16359229Y-13398460D02*
X16368753Y-13388936D01*
X16368753Y-13388936D02*
X16368753Y-13407984D01*
X16444943Y-13207984D02*
X16568753Y-13207984D01*
X16568753Y-13207984D02*
X16502086Y-13284174D01*
X16502086Y-13284174D02*
X16530658Y-13284174D01*
X16530658Y-13284174D02*
X16549705Y-13293698D01*
X16549705Y-13293698D02*
X16559229Y-13303222D01*
X16559229Y-13303222D02*
X16568753Y-13322269D01*
X16568753Y-13322269D02*
X16568753Y-13369888D01*
X16568753Y-13369888D02*
X16559229Y-13388936D01*
X16559229Y-13388936D02*
X16549705Y-13398460D01*
X16549705Y-13398460D02*
X16530658Y-13407984D01*
X16530658Y-13407984D02*
X16473515Y-13407984D01*
X16473515Y-13407984D02*
X16454467Y-13398460D01*
X16454467Y-13398460D02*
X16444943Y-13388936D01*
X16692562Y-13207984D02*
X16711610Y-13207984D01*
X16711610Y-13207984D02*
X16730658Y-13217508D01*
X16730658Y-13217508D02*
X16740182Y-13227031D01*
X16740182Y-13227031D02*
X16749705Y-13246079D01*
X16749705Y-13246079D02*
X16759229Y-13284174D01*
X16759229Y-13284174D02*
X16759229Y-13331793D01*
X16759229Y-13331793D02*
X16749705Y-13369888D01*
X16749705Y-13369888D02*
X16740182Y-13388936D01*
X16740182Y-13388936D02*
X16730658Y-13398460D01*
X16730658Y-13398460D02*
X16711610Y-13407984D01*
X16711610Y-13407984D02*
X16692562Y-13407984D01*
X16692562Y-13407984D02*
X16673515Y-13398460D01*
X16673515Y-13398460D02*
X16663991Y-13388936D01*
X16663991Y-13388936D02*
X16654467Y-13369888D01*
X16654467Y-13369888D02*
X16644943Y-13331793D01*
X16644943Y-13331793D02*
X16644943Y-13284174D01*
X16644943Y-13284174D02*
X16654467Y-13246079D01*
X16654467Y-13246079D02*
X16663991Y-13227031D01*
X16663991Y-13227031D02*
X16673515Y-13217508D01*
X16673515Y-13217508D02*
X16692562Y-13207984D01*
X16883039Y-13207984D02*
X16902086Y-13207984D01*
X16902086Y-13207984D02*
X16921134Y-13217508D01*
X16921134Y-13217508D02*
X16930658Y-13227031D01*
X16930658Y-13227031D02*
X16940182Y-13246079D01*
X16940182Y-13246079D02*
X16949705Y-13284174D01*
X16949705Y-13284174D02*
X16949705Y-13331793D01*
X16949705Y-13331793D02*
X16940182Y-13369888D01*
X16940182Y-13369888D02*
X16930658Y-13388936D01*
X16930658Y-13388936D02*
X16921134Y-13398460D01*
X16921134Y-13398460D02*
X16902086Y-13407984D01*
X16902086Y-13407984D02*
X16883039Y-13407984D01*
X16883039Y-13407984D02*
X16863991Y-13398460D01*
X16863991Y-13398460D02*
X16854467Y-13388936D01*
X16854467Y-13388936D02*
X16844944Y-13369888D01*
X16844944Y-13369888D02*
X16835420Y-13331793D01*
X16835420Y-13331793D02*
X16835420Y-13284174D01*
X16835420Y-13284174D02*
X16844944Y-13246079D01*
X16844944Y-13246079D02*
X16854467Y-13227031D01*
X16854467Y-13227031D02*
X16863991Y-13217508D01*
X16863991Y-13217508D02*
X16883039Y-13207984D01*
X17035420Y-13407984D02*
X17035420Y-13274650D01*
X17035420Y-13293698D02*
X17044944Y-13284174D01*
X17044944Y-13284174D02*
X17063991Y-13274650D01*
X17063991Y-13274650D02*
X17092563Y-13274650D01*
X17092563Y-13274650D02*
X17111610Y-13284174D01*
X17111610Y-13284174D02*
X17121134Y-13303222D01*
X17121134Y-13303222D02*
X17121134Y-13407984D01*
X17121134Y-13303222D02*
X17130658Y-13284174D01*
X17130658Y-13284174D02*
X17149705Y-13274650D01*
X17149705Y-13274650D02*
X17178277Y-13274650D01*
X17178277Y-13274650D02*
X17197325Y-13284174D01*
X17197325Y-13284174D02*
X17206848Y-13303222D01*
X17206848Y-13303222D02*
X17206848Y-13407984D01*
X17302086Y-13407984D02*
X17302086Y-13274650D01*
X17302086Y-13293698D02*
X17311610Y-13284174D01*
X17311610Y-13284174D02*
X17330658Y-13274650D01*
X17330658Y-13274650D02*
X17359229Y-13274650D01*
X17359229Y-13274650D02*
X17378277Y-13284174D01*
X17378277Y-13284174D02*
X17387801Y-13303222D01*
X17387801Y-13303222D02*
X17387801Y-13407984D01*
X17387801Y-13303222D02*
X17397325Y-13284174D01*
X17397325Y-13284174D02*
X17416372Y-13274650D01*
X17416372Y-13274650D02*
X17444944Y-13274650D01*
X17444944Y-13274650D02*
X17463991Y-13284174D01*
X17463991Y-13284174D02*
X17473515Y-13303222D01*
X17473515Y-13303222D02*
X17473515Y-13407984D01*
X17863991Y-13198460D02*
X17692563Y-13455603D01*
X18121134Y-13207984D02*
X18140182Y-13207984D01*
X18140182Y-13207984D02*
X18159229Y-13217508D01*
X18159229Y-13217508D02*
X18168753Y-13227031D01*
X18168753Y-13227031D02*
X18178277Y-13246079D01*
X18178277Y-13246079D02*
X18187801Y-13284174D01*
X18187801Y-13284174D02*
X18187801Y-13331793D01*
X18187801Y-13331793D02*
X18178277Y-13369888D01*
X18178277Y-13369888D02*
X18168753Y-13388936D01*
X18168753Y-13388936D02*
X18159229Y-13398460D01*
X18159229Y-13398460D02*
X18140182Y-13407984D01*
X18140182Y-13407984D02*
X18121134Y-13407984D01*
X18121134Y-13407984D02*
X18102087Y-13398460D01*
X18102087Y-13398460D02*
X18092563Y-13388936D01*
X18092563Y-13388936D02*
X18083039Y-13369888D01*
X18083039Y-13369888D02*
X18073515Y-13331793D01*
X18073515Y-13331793D02*
X18073515Y-13284174D01*
X18073515Y-13284174D02*
X18083039Y-13246079D01*
X18083039Y-13246079D02*
X18092563Y-13227031D01*
X18092563Y-13227031D02*
X18102087Y-13217508D01*
X18102087Y-13217508D02*
X18121134Y-13207984D01*
X18273515Y-13388936D02*
X18283039Y-13398460D01*
X18283039Y-13398460D02*
X18273515Y-13407984D01*
X18273515Y-13407984D02*
X18263991Y-13398460D01*
X18263991Y-13398460D02*
X18273515Y-13388936D01*
X18273515Y-13388936D02*
X18273515Y-13407984D01*
X18406848Y-13207984D02*
X18425896Y-13207984D01*
X18425896Y-13207984D02*
X18444944Y-13217508D01*
X18444944Y-13217508D02*
X18454468Y-13227031D01*
X18454468Y-13227031D02*
X18463991Y-13246079D01*
X18463991Y-13246079D02*
X18473515Y-13284174D01*
X18473515Y-13284174D02*
X18473515Y-13331793D01*
X18473515Y-13331793D02*
X18463991Y-13369888D01*
X18463991Y-13369888D02*
X18454468Y-13388936D01*
X18454468Y-13388936D02*
X18444944Y-13398460D01*
X18444944Y-13398460D02*
X18425896Y-13407984D01*
X18425896Y-13407984D02*
X18406848Y-13407984D01*
X18406848Y-13407984D02*
X18387801Y-13398460D01*
X18387801Y-13398460D02*
X18378277Y-13388936D01*
X18378277Y-13388936D02*
X18368753Y-13369888D01*
X18368753Y-13369888D02*
X18359229Y-13331793D01*
X18359229Y-13331793D02*
X18359229Y-13284174D01*
X18359229Y-13284174D02*
X18368753Y-13246079D01*
X18368753Y-13246079D02*
X18378277Y-13227031D01*
X18378277Y-13227031D02*
X18387801Y-13217508D01*
X18387801Y-13217508D02*
X18406848Y-13207984D01*
X18663991Y-13407984D02*
X18549706Y-13407984D01*
X18606848Y-13407984D02*
X18606848Y-13207984D01*
X18606848Y-13207984D02*
X18587801Y-13236555D01*
X18587801Y-13236555D02*
X18568753Y-13255603D01*
X18568753Y-13255603D02*
X18549706Y-13265127D01*
X18854468Y-13407984D02*
X18740182Y-13407984D01*
X18797325Y-13407984D02*
X18797325Y-13207984D01*
X18797325Y-13207984D02*
X18778277Y-13236555D01*
X18778277Y-13236555D02*
X18759229Y-13255603D01*
X18759229Y-13255603D02*
X18740182Y-13265127D01*
X18968753Y-13293698D02*
X18949706Y-13284174D01*
X18949706Y-13284174D02*
X18940182Y-13274650D01*
X18940182Y-13274650D02*
X18930658Y-13255603D01*
X18930658Y-13255603D02*
X18930658Y-13246079D01*
X18930658Y-13246079D02*
X18940182Y-13227031D01*
X18940182Y-13227031D02*
X18949706Y-13217508D01*
X18949706Y-13217508D02*
X18968753Y-13207984D01*
X18968753Y-13207984D02*
X19006849Y-13207984D01*
X19006849Y-13207984D02*
X19025896Y-13217508D01*
X19025896Y-13217508D02*
X19035420Y-13227031D01*
X19035420Y-13227031D02*
X19044944Y-13246079D01*
X19044944Y-13246079D02*
X19044944Y-13255603D01*
X19044944Y-13255603D02*
X19035420Y-13274650D01*
X19035420Y-13274650D02*
X19025896Y-13284174D01*
X19025896Y-13284174D02*
X19006849Y-13293698D01*
X19006849Y-13293698D02*
X18968753Y-13293698D01*
X18968753Y-13293698D02*
X18949706Y-13303222D01*
X18949706Y-13303222D02*
X18940182Y-13312746D01*
X18940182Y-13312746D02*
X18930658Y-13331793D01*
X18930658Y-13331793D02*
X18930658Y-13369888D01*
X18930658Y-13369888D02*
X18940182Y-13388936D01*
X18940182Y-13388936D02*
X18949706Y-13398460D01*
X18949706Y-13398460D02*
X18968753Y-13407984D01*
X18968753Y-13407984D02*
X19006849Y-13407984D01*
X19006849Y-13407984D02*
X19025896Y-13398460D01*
X19025896Y-13398460D02*
X19035420Y-13388936D01*
X19035420Y-13388936D02*
X19044944Y-13369888D01*
X19044944Y-13369888D02*
X19044944Y-13331793D01*
X19044944Y-13331793D02*
X19035420Y-13312746D01*
X19035420Y-13312746D02*
X19025896Y-13303222D01*
X19025896Y-13303222D02*
X19006849Y-13293698D01*
X19121134Y-13207984D02*
X19121134Y-13246079D01*
X19197325Y-13207984D02*
X19197325Y-13246079D01*
X19492563Y-13484174D02*
X19483039Y-13474650D01*
X19483039Y-13474650D02*
X19463991Y-13446079D01*
X19463991Y-13446079D02*
X19454468Y-13427031D01*
X19454468Y-13427031D02*
X19444944Y-13398460D01*
X19444944Y-13398460D02*
X19435420Y-13350841D01*
X19435420Y-13350841D02*
X19435420Y-13312746D01*
X19435420Y-13312746D02*
X19444944Y-13265127D01*
X19444944Y-13265127D02*
X19454468Y-13236555D01*
X19454468Y-13236555D02*
X19463991Y-13217508D01*
X19463991Y-13217508D02*
X19483039Y-13188936D01*
X19483039Y-13188936D02*
X19492563Y-13179412D01*
X19673515Y-13407984D02*
X19559230Y-13407984D01*
X19616372Y-13407984D02*
X19616372Y-13207984D01*
X19616372Y-13207984D02*
X19597325Y-13236555D01*
X19597325Y-13236555D02*
X19578277Y-13255603D01*
X19578277Y-13255603D02*
X19559230Y-13265127D01*
X19911611Y-13407984D02*
X19911611Y-13207984D01*
X19997325Y-13407984D02*
X19997325Y-13303222D01*
X19997325Y-13303222D02*
X19987801Y-13284174D01*
X19987801Y-13284174D02*
X19968753Y-13274650D01*
X19968753Y-13274650D02*
X19940182Y-13274650D01*
X19940182Y-13274650D02*
X19921134Y-13284174D01*
X19921134Y-13284174D02*
X19911611Y-13293698D01*
X20121134Y-13407984D02*
X20102087Y-13398460D01*
X20102087Y-13398460D02*
X20092563Y-13388936D01*
X20092563Y-13388936D02*
X20083039Y-13369888D01*
X20083039Y-13369888D02*
X20083039Y-13312746D01*
X20083039Y-13312746D02*
X20092563Y-13293698D01*
X20092563Y-13293698D02*
X20102087Y-13284174D01*
X20102087Y-13284174D02*
X20121134Y-13274650D01*
X20121134Y-13274650D02*
X20149706Y-13274650D01*
X20149706Y-13274650D02*
X20168753Y-13284174D01*
X20168753Y-13284174D02*
X20178277Y-13293698D01*
X20178277Y-13293698D02*
X20187801Y-13312746D01*
X20187801Y-13312746D02*
X20187801Y-13369888D01*
X20187801Y-13369888D02*
X20178277Y-13388936D01*
X20178277Y-13388936D02*
X20168753Y-13398460D01*
X20168753Y-13398460D02*
X20149706Y-13407984D01*
X20149706Y-13407984D02*
X20121134Y-13407984D01*
X20302087Y-13407984D02*
X20283039Y-13398460D01*
X20283039Y-13398460D02*
X20273515Y-13379412D01*
X20273515Y-13379412D02*
X20273515Y-13207984D01*
X20454468Y-13398460D02*
X20435420Y-13407984D01*
X20435420Y-13407984D02*
X20397325Y-13407984D01*
X20397325Y-13407984D02*
X20378277Y-13398460D01*
X20378277Y-13398460D02*
X20368753Y-13379412D01*
X20368753Y-13379412D02*
X20368753Y-13303222D01*
X20368753Y-13303222D02*
X20378277Y-13284174D01*
X20378277Y-13284174D02*
X20397325Y-13274650D01*
X20397325Y-13274650D02*
X20435420Y-13274650D01*
X20435420Y-13274650D02*
X20454468Y-13284174D01*
X20454468Y-13284174D02*
X20463992Y-13303222D01*
X20463992Y-13303222D02*
X20463992Y-13322269D01*
X20463992Y-13322269D02*
X20368753Y-13341317D01*
X20530658Y-13484174D02*
X20540182Y-13474650D01*
X20540182Y-13474650D02*
X20559230Y-13446079D01*
X20559230Y-13446079D02*
X20568753Y-13427031D01*
X20568753Y-13427031D02*
X20578277Y-13398460D01*
X20578277Y-13398460D02*
X20587801Y-13350841D01*
X20587801Y-13350841D02*
X20587801Y-13312746D01*
X20587801Y-13312746D02*
X20578277Y-13265127D01*
X20578277Y-13265127D02*
X20568753Y-13236555D01*
X20568753Y-13236555D02*
X20559230Y-13217508D01*
X20559230Y-13217508D02*
X20540182Y-13188936D01*
X20540182Y-13188936D02*
X20530658Y-13179412D01*
D12*
X15917500Y-13580500D02*
G75*
G02*
X15828600Y-13580500I-44450J0D01*
G01*
X15828600Y-13580500D02*
G75*
G02*
X15917500Y-13580500I44450J0D01*
G01*
D11*
X16216372Y-13471984D02*
X16235420Y-13471984D01*
X16235420Y-13471984D02*
X16254467Y-13481508D01*
X16254467Y-13481508D02*
X16263991Y-13491031D01*
X16263991Y-13491031D02*
X16273515Y-13510079D01*
X16273515Y-13510079D02*
X16283039Y-13548174D01*
X16283039Y-13548174D02*
X16283039Y-13595793D01*
X16283039Y-13595793D02*
X16273515Y-13633888D01*
X16273515Y-13633888D02*
X16263991Y-13652936D01*
X16263991Y-13652936D02*
X16254467Y-13662460D01*
X16254467Y-13662460D02*
X16235420Y-13671984D01*
X16235420Y-13671984D02*
X16216372Y-13671984D01*
X16216372Y-13671984D02*
X16197324Y-13662460D01*
X16197324Y-13662460D02*
X16187801Y-13652936D01*
X16187801Y-13652936D02*
X16178277Y-13633888D01*
X16178277Y-13633888D02*
X16168753Y-13595793D01*
X16168753Y-13595793D02*
X16168753Y-13548174D01*
X16168753Y-13548174D02*
X16178277Y-13510079D01*
X16178277Y-13510079D02*
X16187801Y-13491031D01*
X16187801Y-13491031D02*
X16197324Y-13481508D01*
X16197324Y-13481508D02*
X16216372Y-13471984D01*
X16368753Y-13652936D02*
X16378277Y-13662460D01*
X16378277Y-13662460D02*
X16368753Y-13671984D01*
X16368753Y-13671984D02*
X16359229Y-13662460D01*
X16359229Y-13662460D02*
X16368753Y-13652936D01*
X16368753Y-13652936D02*
X16368753Y-13671984D01*
X16492562Y-13557698D02*
X16473515Y-13548174D01*
X16473515Y-13548174D02*
X16463991Y-13538650D01*
X16463991Y-13538650D02*
X16454467Y-13519603D01*
X16454467Y-13519603D02*
X16454467Y-13510079D01*
X16454467Y-13510079D02*
X16463991Y-13491031D01*
X16463991Y-13491031D02*
X16473515Y-13481508D01*
X16473515Y-13481508D02*
X16492562Y-13471984D01*
X16492562Y-13471984D02*
X16530658Y-13471984D01*
X16530658Y-13471984D02*
X16549705Y-13481508D01*
X16549705Y-13481508D02*
X16559229Y-13491031D01*
X16559229Y-13491031D02*
X16568753Y-13510079D01*
X16568753Y-13510079D02*
X16568753Y-13519603D01*
X16568753Y-13519603D02*
X16559229Y-13538650D01*
X16559229Y-13538650D02*
X16549705Y-13548174D01*
X16549705Y-13548174D02*
X16530658Y-13557698D01*
X16530658Y-13557698D02*
X16492562Y-13557698D01*
X16492562Y-13557698D02*
X16473515Y-13567222D01*
X16473515Y-13567222D02*
X16463991Y-13576746D01*
X16463991Y-13576746D02*
X16454467Y-13595793D01*
X16454467Y-13595793D02*
X16454467Y-13633888D01*
X16454467Y-13633888D02*
X16463991Y-13652936D01*
X16463991Y-13652936D02*
X16473515Y-13662460D01*
X16473515Y-13662460D02*
X16492562Y-13671984D01*
X16492562Y-13671984D02*
X16530658Y-13671984D01*
X16530658Y-13671984D02*
X16549705Y-13662460D01*
X16549705Y-13662460D02*
X16559229Y-13652936D01*
X16559229Y-13652936D02*
X16568753Y-13633888D01*
X16568753Y-13633888D02*
X16568753Y-13595793D01*
X16568753Y-13595793D02*
X16559229Y-13576746D01*
X16559229Y-13576746D02*
X16549705Y-13567222D01*
X16549705Y-13567222D02*
X16530658Y-13557698D01*
X16683039Y-13557698D02*
X16663991Y-13548174D01*
X16663991Y-13548174D02*
X16654467Y-13538650D01*
X16654467Y-13538650D02*
X16644943Y-13519603D01*
X16644943Y-13519603D02*
X16644943Y-13510079D01*
X16644943Y-13510079D02*
X16654467Y-13491031D01*
X16654467Y-13491031D02*
X16663991Y-13481508D01*
X16663991Y-13481508D02*
X16683039Y-13471984D01*
X16683039Y-13471984D02*
X16721134Y-13471984D01*
X16721134Y-13471984D02*
X16740182Y-13481508D01*
X16740182Y-13481508D02*
X16749705Y-13491031D01*
X16749705Y-13491031D02*
X16759229Y-13510079D01*
X16759229Y-13510079D02*
X16759229Y-13519603D01*
X16759229Y-13519603D02*
X16749705Y-13538650D01*
X16749705Y-13538650D02*
X16740182Y-13548174D01*
X16740182Y-13548174D02*
X16721134Y-13557698D01*
X16721134Y-13557698D02*
X16683039Y-13557698D01*
X16683039Y-13557698D02*
X16663991Y-13567222D01*
X16663991Y-13567222D02*
X16654467Y-13576746D01*
X16654467Y-13576746D02*
X16644943Y-13595793D01*
X16644943Y-13595793D02*
X16644943Y-13633888D01*
X16644943Y-13633888D02*
X16654467Y-13652936D01*
X16654467Y-13652936D02*
X16663991Y-13662460D01*
X16663991Y-13662460D02*
X16683039Y-13671984D01*
X16683039Y-13671984D02*
X16721134Y-13671984D01*
X16721134Y-13671984D02*
X16740182Y-13662460D01*
X16740182Y-13662460D02*
X16749705Y-13652936D01*
X16749705Y-13652936D02*
X16759229Y-13633888D01*
X16759229Y-13633888D02*
X16759229Y-13595793D01*
X16759229Y-13595793D02*
X16749705Y-13576746D01*
X16749705Y-13576746D02*
X16740182Y-13567222D01*
X16740182Y-13567222D02*
X16721134Y-13557698D01*
X16854467Y-13671984D02*
X16892563Y-13671984D01*
X16892563Y-13671984D02*
X16911610Y-13662460D01*
X16911610Y-13662460D02*
X16921134Y-13652936D01*
X16921134Y-13652936D02*
X16940182Y-13624365D01*
X16940182Y-13624365D02*
X16949705Y-13586269D01*
X16949705Y-13586269D02*
X16949705Y-13510079D01*
X16949705Y-13510079D02*
X16940182Y-13491031D01*
X16940182Y-13491031D02*
X16930658Y-13481508D01*
X16930658Y-13481508D02*
X16911610Y-13471984D01*
X16911610Y-13471984D02*
X16873515Y-13471984D01*
X16873515Y-13471984D02*
X16854467Y-13481508D01*
X16854467Y-13481508D02*
X16844944Y-13491031D01*
X16844944Y-13491031D02*
X16835420Y-13510079D01*
X16835420Y-13510079D02*
X16835420Y-13557698D01*
X16835420Y-13557698D02*
X16844944Y-13576746D01*
X16844944Y-13576746D02*
X16854467Y-13586269D01*
X16854467Y-13586269D02*
X16873515Y-13595793D01*
X16873515Y-13595793D02*
X16911610Y-13595793D01*
X16911610Y-13595793D02*
X16930658Y-13586269D01*
X16930658Y-13586269D02*
X16940182Y-13576746D01*
X16940182Y-13576746D02*
X16949705Y-13557698D01*
X17035420Y-13671984D02*
X17035420Y-13538650D01*
X17035420Y-13557698D02*
X17044944Y-13548174D01*
X17044944Y-13548174D02*
X17063991Y-13538650D01*
X17063991Y-13538650D02*
X17092563Y-13538650D01*
X17092563Y-13538650D02*
X17111610Y-13548174D01*
X17111610Y-13548174D02*
X17121134Y-13567222D01*
X17121134Y-13567222D02*
X17121134Y-13671984D01*
X17121134Y-13567222D02*
X17130658Y-13548174D01*
X17130658Y-13548174D02*
X17149705Y-13538650D01*
X17149705Y-13538650D02*
X17178277Y-13538650D01*
X17178277Y-13538650D02*
X17197325Y-13548174D01*
X17197325Y-13548174D02*
X17206848Y-13567222D01*
X17206848Y-13567222D02*
X17206848Y-13671984D01*
X17302086Y-13671984D02*
X17302086Y-13538650D01*
X17302086Y-13557698D02*
X17311610Y-13548174D01*
X17311610Y-13548174D02*
X17330658Y-13538650D01*
X17330658Y-13538650D02*
X17359229Y-13538650D01*
X17359229Y-13538650D02*
X17378277Y-13548174D01*
X17378277Y-13548174D02*
X17387801Y-13567222D01*
X17387801Y-13567222D02*
X17387801Y-13671984D01*
X17387801Y-13567222D02*
X17397325Y-13548174D01*
X17397325Y-13548174D02*
X17416372Y-13538650D01*
X17416372Y-13538650D02*
X17444944Y-13538650D01*
X17444944Y-13538650D02*
X17463991Y-13548174D01*
X17463991Y-13548174D02*
X17473515Y-13567222D01*
X17473515Y-13567222D02*
X17473515Y-13671984D01*
X17863991Y-13462460D02*
X17692563Y-13719603D01*
X18121134Y-13471984D02*
X18140182Y-13471984D01*
X18140182Y-13471984D02*
X18159229Y-13481508D01*
X18159229Y-13481508D02*
X18168753Y-13491031D01*
X18168753Y-13491031D02*
X18178277Y-13510079D01*
X18178277Y-13510079D02*
X18187801Y-13548174D01*
X18187801Y-13548174D02*
X18187801Y-13595793D01*
X18187801Y-13595793D02*
X18178277Y-13633888D01*
X18178277Y-13633888D02*
X18168753Y-13652936D01*
X18168753Y-13652936D02*
X18159229Y-13662460D01*
X18159229Y-13662460D02*
X18140182Y-13671984D01*
X18140182Y-13671984D02*
X18121134Y-13671984D01*
X18121134Y-13671984D02*
X18102087Y-13662460D01*
X18102087Y-13662460D02*
X18092563Y-13652936D01*
X18092563Y-13652936D02*
X18083039Y-13633888D01*
X18083039Y-13633888D02*
X18073515Y-13595793D01*
X18073515Y-13595793D02*
X18073515Y-13548174D01*
X18073515Y-13548174D02*
X18083039Y-13510079D01*
X18083039Y-13510079D02*
X18092563Y-13491031D01*
X18092563Y-13491031D02*
X18102087Y-13481508D01*
X18102087Y-13481508D02*
X18121134Y-13471984D01*
X18273515Y-13652936D02*
X18283039Y-13662460D01*
X18283039Y-13662460D02*
X18273515Y-13671984D01*
X18273515Y-13671984D02*
X18263991Y-13662460D01*
X18263991Y-13662460D02*
X18273515Y-13652936D01*
X18273515Y-13652936D02*
X18273515Y-13671984D01*
X18406848Y-13471984D02*
X18425896Y-13471984D01*
X18425896Y-13471984D02*
X18444944Y-13481508D01*
X18444944Y-13481508D02*
X18454468Y-13491031D01*
X18454468Y-13491031D02*
X18463991Y-13510079D01*
X18463991Y-13510079D02*
X18473515Y-13548174D01*
X18473515Y-13548174D02*
X18473515Y-13595793D01*
X18473515Y-13595793D02*
X18463991Y-13633888D01*
X18463991Y-13633888D02*
X18454468Y-13652936D01*
X18454468Y-13652936D02*
X18444944Y-13662460D01*
X18444944Y-13662460D02*
X18425896Y-13671984D01*
X18425896Y-13671984D02*
X18406848Y-13671984D01*
X18406848Y-13671984D02*
X18387801Y-13662460D01*
X18387801Y-13662460D02*
X18378277Y-13652936D01*
X18378277Y-13652936D02*
X18368753Y-13633888D01*
X18368753Y-13633888D02*
X18359229Y-13595793D01*
X18359229Y-13595793D02*
X18359229Y-13548174D01*
X18359229Y-13548174D02*
X18368753Y-13510079D01*
X18368753Y-13510079D02*
X18378277Y-13491031D01*
X18378277Y-13491031D02*
X18387801Y-13481508D01*
X18387801Y-13481508D02*
X18406848Y-13471984D01*
X18540182Y-13471984D02*
X18663991Y-13471984D01*
X18663991Y-13471984D02*
X18597325Y-13548174D01*
X18597325Y-13548174D02*
X18625896Y-13548174D01*
X18625896Y-13548174D02*
X18644944Y-13557698D01*
X18644944Y-13557698D02*
X18654468Y-13567222D01*
X18654468Y-13567222D02*
X18663991Y-13586269D01*
X18663991Y-13586269D02*
X18663991Y-13633888D01*
X18663991Y-13633888D02*
X18654468Y-13652936D01*
X18654468Y-13652936D02*
X18644944Y-13662460D01*
X18644944Y-13662460D02*
X18625896Y-13671984D01*
X18625896Y-13671984D02*
X18568753Y-13671984D01*
X18568753Y-13671984D02*
X18549706Y-13662460D01*
X18549706Y-13662460D02*
X18540182Y-13652936D01*
X18844944Y-13471984D02*
X18749706Y-13471984D01*
X18749706Y-13471984D02*
X18740182Y-13567222D01*
X18740182Y-13567222D02*
X18749706Y-13557698D01*
X18749706Y-13557698D02*
X18768753Y-13548174D01*
X18768753Y-13548174D02*
X18816372Y-13548174D01*
X18816372Y-13548174D02*
X18835420Y-13557698D01*
X18835420Y-13557698D02*
X18844944Y-13567222D01*
X18844944Y-13567222D02*
X18854468Y-13586269D01*
X18854468Y-13586269D02*
X18854468Y-13633888D01*
X18854468Y-13633888D02*
X18844944Y-13652936D01*
X18844944Y-13652936D02*
X18835420Y-13662460D01*
X18835420Y-13662460D02*
X18816372Y-13671984D01*
X18816372Y-13671984D02*
X18768753Y-13671984D01*
X18768753Y-13671984D02*
X18749706Y-13662460D01*
X18749706Y-13662460D02*
X18740182Y-13652936D01*
X18978277Y-13471984D02*
X18997325Y-13471984D01*
X18997325Y-13471984D02*
X19016372Y-13481508D01*
X19016372Y-13481508D02*
X19025896Y-13491031D01*
X19025896Y-13491031D02*
X19035420Y-13510079D01*
X19035420Y-13510079D02*
X19044944Y-13548174D01*
X19044944Y-13548174D02*
X19044944Y-13595793D01*
X19044944Y-13595793D02*
X19035420Y-13633888D01*
X19035420Y-13633888D02*
X19025896Y-13652936D01*
X19025896Y-13652936D02*
X19016372Y-13662460D01*
X19016372Y-13662460D02*
X18997325Y-13671984D01*
X18997325Y-13671984D02*
X18978277Y-13671984D01*
X18978277Y-13671984D02*
X18959229Y-13662460D01*
X18959229Y-13662460D02*
X18949706Y-13652936D01*
X18949706Y-13652936D02*
X18940182Y-13633888D01*
X18940182Y-13633888D02*
X18930658Y-13595793D01*
X18930658Y-13595793D02*
X18930658Y-13548174D01*
X18930658Y-13548174D02*
X18940182Y-13510079D01*
X18940182Y-13510079D02*
X18949706Y-13491031D01*
X18949706Y-13491031D02*
X18959229Y-13481508D01*
X18959229Y-13481508D02*
X18978277Y-13471984D01*
X19121134Y-13471984D02*
X19121134Y-13510079D01*
X19197325Y-13471984D02*
X19197325Y-13510079D01*
X19492563Y-13748174D02*
X19483039Y-13738650D01*
X19483039Y-13738650D02*
X19463991Y-13710079D01*
X19463991Y-13710079D02*
X19454468Y-13691031D01*
X19454468Y-13691031D02*
X19444944Y-13662460D01*
X19444944Y-13662460D02*
X19435420Y-13614841D01*
X19435420Y-13614841D02*
X19435420Y-13576746D01*
X19435420Y-13576746D02*
X19444944Y-13529127D01*
X19444944Y-13529127D02*
X19454468Y-13500555D01*
X19454468Y-13500555D02*
X19463991Y-13481508D01*
X19463991Y-13481508D02*
X19483039Y-13452936D01*
X19483039Y-13452936D02*
X19492563Y-13443412D01*
X19673515Y-13671984D02*
X19559230Y-13671984D01*
X19616372Y-13671984D02*
X19616372Y-13471984D01*
X19616372Y-13471984D02*
X19597325Y-13500555D01*
X19597325Y-13500555D02*
X19578277Y-13519603D01*
X19578277Y-13519603D02*
X19559230Y-13529127D01*
X19844944Y-13538650D02*
X19844944Y-13671984D01*
X19797325Y-13462460D02*
X19749706Y-13605317D01*
X19749706Y-13605317D02*
X19873515Y-13605317D01*
X20102087Y-13671984D02*
X20102087Y-13471984D01*
X20187801Y-13671984D02*
X20187801Y-13567222D01*
X20187801Y-13567222D02*
X20178277Y-13548174D01*
X20178277Y-13548174D02*
X20159230Y-13538650D01*
X20159230Y-13538650D02*
X20130658Y-13538650D01*
X20130658Y-13538650D02*
X20111611Y-13548174D01*
X20111611Y-13548174D02*
X20102087Y-13557698D01*
X20311611Y-13671984D02*
X20292563Y-13662460D01*
X20292563Y-13662460D02*
X20283039Y-13652936D01*
X20283039Y-13652936D02*
X20273515Y-13633888D01*
X20273515Y-13633888D02*
X20273515Y-13576746D01*
X20273515Y-13576746D02*
X20283039Y-13557698D01*
X20283039Y-13557698D02*
X20292563Y-13548174D01*
X20292563Y-13548174D02*
X20311611Y-13538650D01*
X20311611Y-13538650D02*
X20340182Y-13538650D01*
X20340182Y-13538650D02*
X20359230Y-13548174D01*
X20359230Y-13548174D02*
X20368753Y-13557698D01*
X20368753Y-13557698D02*
X20378277Y-13576746D01*
X20378277Y-13576746D02*
X20378277Y-13633888D01*
X20378277Y-13633888D02*
X20368753Y-13652936D01*
X20368753Y-13652936D02*
X20359230Y-13662460D01*
X20359230Y-13662460D02*
X20340182Y-13671984D01*
X20340182Y-13671984D02*
X20311611Y-13671984D01*
X20492563Y-13671984D02*
X20473515Y-13662460D01*
X20473515Y-13662460D02*
X20463992Y-13643412D01*
X20463992Y-13643412D02*
X20463992Y-13471984D01*
X20644944Y-13662460D02*
X20625896Y-13671984D01*
X20625896Y-13671984D02*
X20587801Y-13671984D01*
X20587801Y-13671984D02*
X20568753Y-13662460D01*
X20568753Y-13662460D02*
X20559230Y-13643412D01*
X20559230Y-13643412D02*
X20559230Y-13567222D01*
X20559230Y-13567222D02*
X20568753Y-13548174D01*
X20568753Y-13548174D02*
X20587801Y-13538650D01*
X20587801Y-13538650D02*
X20625896Y-13538650D01*
X20625896Y-13538650D02*
X20644944Y-13548174D01*
X20644944Y-13548174D02*
X20654468Y-13567222D01*
X20654468Y-13567222D02*
X20654468Y-13586269D01*
X20654468Y-13586269D02*
X20559230Y-13605317D01*
X20730658Y-13662460D02*
X20749706Y-13671984D01*
X20749706Y-13671984D02*
X20787801Y-13671984D01*
X20787801Y-13671984D02*
X20806849Y-13662460D01*
X20806849Y-13662460D02*
X20816373Y-13643412D01*
X20816373Y-13643412D02*
X20816373Y-13633888D01*
X20816373Y-13633888D02*
X20806849Y-13614841D01*
X20806849Y-13614841D02*
X20787801Y-13605317D01*
X20787801Y-13605317D02*
X20759230Y-13605317D01*
X20759230Y-13605317D02*
X20740182Y-13595793D01*
X20740182Y-13595793D02*
X20730658Y-13576746D01*
X20730658Y-13576746D02*
X20730658Y-13567222D01*
X20730658Y-13567222D02*
X20740182Y-13548174D01*
X20740182Y-13548174D02*
X20759230Y-13538650D01*
X20759230Y-13538650D02*
X20787801Y-13538650D01*
X20787801Y-13538650D02*
X20806849Y-13548174D01*
X20883039Y-13748174D02*
X20892563Y-13738650D01*
X20892563Y-13738650D02*
X20911611Y-13710079D01*
X20911611Y-13710079D02*
X20921134Y-13691031D01*
X20921134Y-13691031D02*
X20930658Y-13662460D01*
X20930658Y-13662460D02*
X20940182Y-13614841D01*
X20940182Y-13614841D02*
X20940182Y-13576746D01*
X20940182Y-13576746D02*
X20930658Y-13529127D01*
X20930658Y-13529127D02*
X20921134Y-13500555D01*
X20921134Y-13500555D02*
X20911611Y-13481508D01*
X20911611Y-13481508D02*
X20892563Y-13452936D01*
X20892563Y-13452936D02*
X20883039Y-13443412D01*
D12*
X15867500Y-13794500D02*
X15867500Y-13894500D01*
X15817500Y-13844500D02*
X15917500Y-13844500D01*
D11*
X16283039Y-13935984D02*
X16168753Y-13935984D01*
X16225896Y-13935984D02*
X16225896Y-13735984D01*
X16225896Y-13735984D02*
X16206848Y-13764555D01*
X16206848Y-13764555D02*
X16187801Y-13783603D01*
X16187801Y-13783603D02*
X16168753Y-13793127D01*
X16368753Y-13916936D02*
X16378277Y-13926460D01*
X16378277Y-13926460D02*
X16368753Y-13935984D01*
X16368753Y-13935984D02*
X16359229Y-13926460D01*
X16359229Y-13926460D02*
X16368753Y-13916936D01*
X16368753Y-13916936D02*
X16368753Y-13935984D01*
X16502086Y-13735984D02*
X16521134Y-13735984D01*
X16521134Y-13735984D02*
X16540182Y-13745508D01*
X16540182Y-13745508D02*
X16549705Y-13755031D01*
X16549705Y-13755031D02*
X16559229Y-13774079D01*
X16559229Y-13774079D02*
X16568753Y-13812174D01*
X16568753Y-13812174D02*
X16568753Y-13859793D01*
X16568753Y-13859793D02*
X16559229Y-13897888D01*
X16559229Y-13897888D02*
X16549705Y-13916936D01*
X16549705Y-13916936D02*
X16540182Y-13926460D01*
X16540182Y-13926460D02*
X16521134Y-13935984D01*
X16521134Y-13935984D02*
X16502086Y-13935984D01*
X16502086Y-13935984D02*
X16483039Y-13926460D01*
X16483039Y-13926460D02*
X16473515Y-13916936D01*
X16473515Y-13916936D02*
X16463991Y-13897888D01*
X16463991Y-13897888D02*
X16454467Y-13859793D01*
X16454467Y-13859793D02*
X16454467Y-13812174D01*
X16454467Y-13812174D02*
X16463991Y-13774079D01*
X16463991Y-13774079D02*
X16473515Y-13755031D01*
X16473515Y-13755031D02*
X16483039Y-13745508D01*
X16483039Y-13745508D02*
X16502086Y-13735984D01*
X16692562Y-13735984D02*
X16711610Y-13735984D01*
X16711610Y-13735984D02*
X16730658Y-13745508D01*
X16730658Y-13745508D02*
X16740182Y-13755031D01*
X16740182Y-13755031D02*
X16749705Y-13774079D01*
X16749705Y-13774079D02*
X16759229Y-13812174D01*
X16759229Y-13812174D02*
X16759229Y-13859793D01*
X16759229Y-13859793D02*
X16749705Y-13897888D01*
X16749705Y-13897888D02*
X16740182Y-13916936D01*
X16740182Y-13916936D02*
X16730658Y-13926460D01*
X16730658Y-13926460D02*
X16711610Y-13935984D01*
X16711610Y-13935984D02*
X16692562Y-13935984D01*
X16692562Y-13935984D02*
X16673515Y-13926460D01*
X16673515Y-13926460D02*
X16663991Y-13916936D01*
X16663991Y-13916936D02*
X16654467Y-13897888D01*
X16654467Y-13897888D02*
X16644943Y-13859793D01*
X16644943Y-13859793D02*
X16644943Y-13812174D01*
X16644943Y-13812174D02*
X16654467Y-13774079D01*
X16654467Y-13774079D02*
X16663991Y-13755031D01*
X16663991Y-13755031D02*
X16673515Y-13745508D01*
X16673515Y-13745508D02*
X16692562Y-13735984D01*
X16883039Y-13735984D02*
X16902086Y-13735984D01*
X16902086Y-13735984D02*
X16921134Y-13745508D01*
X16921134Y-13745508D02*
X16930658Y-13755031D01*
X16930658Y-13755031D02*
X16940182Y-13774079D01*
X16940182Y-13774079D02*
X16949705Y-13812174D01*
X16949705Y-13812174D02*
X16949705Y-13859793D01*
X16949705Y-13859793D02*
X16940182Y-13897888D01*
X16940182Y-13897888D02*
X16930658Y-13916936D01*
X16930658Y-13916936D02*
X16921134Y-13926460D01*
X16921134Y-13926460D02*
X16902086Y-13935984D01*
X16902086Y-13935984D02*
X16883039Y-13935984D01*
X16883039Y-13935984D02*
X16863991Y-13926460D01*
X16863991Y-13926460D02*
X16854467Y-13916936D01*
X16854467Y-13916936D02*
X16844944Y-13897888D01*
X16844944Y-13897888D02*
X16835420Y-13859793D01*
X16835420Y-13859793D02*
X16835420Y-13812174D01*
X16835420Y-13812174D02*
X16844944Y-13774079D01*
X16844944Y-13774079D02*
X16854467Y-13755031D01*
X16854467Y-13755031D02*
X16863991Y-13745508D01*
X16863991Y-13745508D02*
X16883039Y-13735984D01*
X17035420Y-13935984D02*
X17035420Y-13802650D01*
X17035420Y-13821698D02*
X17044944Y-13812174D01*
X17044944Y-13812174D02*
X17063991Y-13802650D01*
X17063991Y-13802650D02*
X17092563Y-13802650D01*
X17092563Y-13802650D02*
X17111610Y-13812174D01*
X17111610Y-13812174D02*
X17121134Y-13831222D01*
X17121134Y-13831222D02*
X17121134Y-13935984D01*
X17121134Y-13831222D02*
X17130658Y-13812174D01*
X17130658Y-13812174D02*
X17149705Y-13802650D01*
X17149705Y-13802650D02*
X17178277Y-13802650D01*
X17178277Y-13802650D02*
X17197325Y-13812174D01*
X17197325Y-13812174D02*
X17206848Y-13831222D01*
X17206848Y-13831222D02*
X17206848Y-13935984D01*
X17302086Y-13935984D02*
X17302086Y-13802650D01*
X17302086Y-13821698D02*
X17311610Y-13812174D01*
X17311610Y-13812174D02*
X17330658Y-13802650D01*
X17330658Y-13802650D02*
X17359229Y-13802650D01*
X17359229Y-13802650D02*
X17378277Y-13812174D01*
X17378277Y-13812174D02*
X17387801Y-13831222D01*
X17387801Y-13831222D02*
X17387801Y-13935984D01*
X17387801Y-13831222D02*
X17397325Y-13812174D01*
X17397325Y-13812174D02*
X17416372Y-13802650D01*
X17416372Y-13802650D02*
X17444944Y-13802650D01*
X17444944Y-13802650D02*
X17463991Y-13812174D01*
X17463991Y-13812174D02*
X17473515Y-13831222D01*
X17473515Y-13831222D02*
X17473515Y-13935984D01*
X17863991Y-13726460D02*
X17692563Y-13983603D01*
X18121134Y-13735984D02*
X18140182Y-13735984D01*
X18140182Y-13735984D02*
X18159229Y-13745508D01*
X18159229Y-13745508D02*
X18168753Y-13755031D01*
X18168753Y-13755031D02*
X18178277Y-13774079D01*
X18178277Y-13774079D02*
X18187801Y-13812174D01*
X18187801Y-13812174D02*
X18187801Y-13859793D01*
X18187801Y-13859793D02*
X18178277Y-13897888D01*
X18178277Y-13897888D02*
X18168753Y-13916936D01*
X18168753Y-13916936D02*
X18159229Y-13926460D01*
X18159229Y-13926460D02*
X18140182Y-13935984D01*
X18140182Y-13935984D02*
X18121134Y-13935984D01*
X18121134Y-13935984D02*
X18102087Y-13926460D01*
X18102087Y-13926460D02*
X18092563Y-13916936D01*
X18092563Y-13916936D02*
X18083039Y-13897888D01*
X18083039Y-13897888D02*
X18073515Y-13859793D01*
X18073515Y-13859793D02*
X18073515Y-13812174D01*
X18073515Y-13812174D02*
X18083039Y-13774079D01*
X18083039Y-13774079D02*
X18092563Y-13755031D01*
X18092563Y-13755031D02*
X18102087Y-13745508D01*
X18102087Y-13745508D02*
X18121134Y-13735984D01*
X18273515Y-13916936D02*
X18283039Y-13926460D01*
X18283039Y-13926460D02*
X18273515Y-13935984D01*
X18273515Y-13935984D02*
X18263991Y-13926460D01*
X18263991Y-13926460D02*
X18273515Y-13916936D01*
X18273515Y-13916936D02*
X18273515Y-13935984D01*
X18406848Y-13735984D02*
X18425896Y-13735984D01*
X18425896Y-13735984D02*
X18444944Y-13745508D01*
X18444944Y-13745508D02*
X18454468Y-13755031D01*
X18454468Y-13755031D02*
X18463991Y-13774079D01*
X18463991Y-13774079D02*
X18473515Y-13812174D01*
X18473515Y-13812174D02*
X18473515Y-13859793D01*
X18473515Y-13859793D02*
X18463991Y-13897888D01*
X18463991Y-13897888D02*
X18454468Y-13916936D01*
X18454468Y-13916936D02*
X18444944Y-13926460D01*
X18444944Y-13926460D02*
X18425896Y-13935984D01*
X18425896Y-13935984D02*
X18406848Y-13935984D01*
X18406848Y-13935984D02*
X18387801Y-13926460D01*
X18387801Y-13926460D02*
X18378277Y-13916936D01*
X18378277Y-13916936D02*
X18368753Y-13897888D01*
X18368753Y-13897888D02*
X18359229Y-13859793D01*
X18359229Y-13859793D02*
X18359229Y-13812174D01*
X18359229Y-13812174D02*
X18368753Y-13774079D01*
X18368753Y-13774079D02*
X18378277Y-13755031D01*
X18378277Y-13755031D02*
X18387801Y-13745508D01*
X18387801Y-13745508D02*
X18406848Y-13735984D01*
X18540182Y-13735984D02*
X18663991Y-13735984D01*
X18663991Y-13735984D02*
X18597325Y-13812174D01*
X18597325Y-13812174D02*
X18625896Y-13812174D01*
X18625896Y-13812174D02*
X18644944Y-13821698D01*
X18644944Y-13821698D02*
X18654468Y-13831222D01*
X18654468Y-13831222D02*
X18663991Y-13850269D01*
X18663991Y-13850269D02*
X18663991Y-13897888D01*
X18663991Y-13897888D02*
X18654468Y-13916936D01*
X18654468Y-13916936D02*
X18644944Y-13926460D01*
X18644944Y-13926460D02*
X18625896Y-13935984D01*
X18625896Y-13935984D02*
X18568753Y-13935984D01*
X18568753Y-13935984D02*
X18549706Y-13926460D01*
X18549706Y-13926460D02*
X18540182Y-13916936D01*
X18759229Y-13935984D02*
X18797325Y-13935984D01*
X18797325Y-13935984D02*
X18816372Y-13926460D01*
X18816372Y-13926460D02*
X18825896Y-13916936D01*
X18825896Y-13916936D02*
X18844944Y-13888365D01*
X18844944Y-13888365D02*
X18854468Y-13850269D01*
X18854468Y-13850269D02*
X18854468Y-13774079D01*
X18854468Y-13774079D02*
X18844944Y-13755031D01*
X18844944Y-13755031D02*
X18835420Y-13745508D01*
X18835420Y-13745508D02*
X18816372Y-13735984D01*
X18816372Y-13735984D02*
X18778277Y-13735984D01*
X18778277Y-13735984D02*
X18759229Y-13745508D01*
X18759229Y-13745508D02*
X18749706Y-13755031D01*
X18749706Y-13755031D02*
X18740182Y-13774079D01*
X18740182Y-13774079D02*
X18740182Y-13821698D01*
X18740182Y-13821698D02*
X18749706Y-13840746D01*
X18749706Y-13840746D02*
X18759229Y-13850269D01*
X18759229Y-13850269D02*
X18778277Y-13859793D01*
X18778277Y-13859793D02*
X18816372Y-13859793D01*
X18816372Y-13859793D02*
X18835420Y-13850269D01*
X18835420Y-13850269D02*
X18844944Y-13840746D01*
X18844944Y-13840746D02*
X18854468Y-13821698D01*
X19025896Y-13802650D02*
X19025896Y-13935984D01*
X18978277Y-13726460D02*
X18930658Y-13869317D01*
X18930658Y-13869317D02*
X19054468Y-13869317D01*
X19121134Y-13735984D02*
X19121134Y-13774079D01*
X19197325Y-13735984D02*
X19197325Y-13774079D01*
X19492563Y-14012174D02*
X19483039Y-14002650D01*
X19483039Y-14002650D02*
X19463991Y-13974079D01*
X19463991Y-13974079D02*
X19454468Y-13955031D01*
X19454468Y-13955031D02*
X19444944Y-13926460D01*
X19444944Y-13926460D02*
X19435420Y-13878841D01*
X19435420Y-13878841D02*
X19435420Y-13840746D01*
X19435420Y-13840746D02*
X19444944Y-13793127D01*
X19444944Y-13793127D02*
X19454468Y-13764555D01*
X19454468Y-13764555D02*
X19463991Y-13745508D01*
X19463991Y-13745508D02*
X19483039Y-13716936D01*
X19483039Y-13716936D02*
X19492563Y-13707412D01*
X19654468Y-13802650D02*
X19654468Y-13935984D01*
X19606849Y-13726460D02*
X19559230Y-13869317D01*
X19559230Y-13869317D02*
X19683039Y-13869317D01*
X19911611Y-13935984D02*
X19911611Y-13735984D01*
X19997325Y-13935984D02*
X19997325Y-13831222D01*
X19997325Y-13831222D02*
X19987801Y-13812174D01*
X19987801Y-13812174D02*
X19968753Y-13802650D01*
X19968753Y-13802650D02*
X19940182Y-13802650D01*
X19940182Y-13802650D02*
X19921134Y-13812174D01*
X19921134Y-13812174D02*
X19911611Y-13821698D01*
X20121134Y-13935984D02*
X20102087Y-13926460D01*
X20102087Y-13926460D02*
X20092563Y-13916936D01*
X20092563Y-13916936D02*
X20083039Y-13897888D01*
X20083039Y-13897888D02*
X20083039Y-13840746D01*
X20083039Y-13840746D02*
X20092563Y-13821698D01*
X20092563Y-13821698D02*
X20102087Y-13812174D01*
X20102087Y-13812174D02*
X20121134Y-13802650D01*
X20121134Y-13802650D02*
X20149706Y-13802650D01*
X20149706Y-13802650D02*
X20168753Y-13812174D01*
X20168753Y-13812174D02*
X20178277Y-13821698D01*
X20178277Y-13821698D02*
X20187801Y-13840746D01*
X20187801Y-13840746D02*
X20187801Y-13897888D01*
X20187801Y-13897888D02*
X20178277Y-13916936D01*
X20178277Y-13916936D02*
X20168753Y-13926460D01*
X20168753Y-13926460D02*
X20149706Y-13935984D01*
X20149706Y-13935984D02*
X20121134Y-13935984D01*
X20302087Y-13935984D02*
X20283039Y-13926460D01*
X20283039Y-13926460D02*
X20273515Y-13907412D01*
X20273515Y-13907412D02*
X20273515Y-13735984D01*
X20454468Y-13926460D02*
X20435420Y-13935984D01*
X20435420Y-13935984D02*
X20397325Y-13935984D01*
X20397325Y-13935984D02*
X20378277Y-13926460D01*
X20378277Y-13926460D02*
X20368753Y-13907412D01*
X20368753Y-13907412D02*
X20368753Y-13831222D01*
X20368753Y-13831222D02*
X20378277Y-13812174D01*
X20378277Y-13812174D02*
X20397325Y-13802650D01*
X20397325Y-13802650D02*
X20435420Y-13802650D01*
X20435420Y-13802650D02*
X20454468Y-13812174D01*
X20454468Y-13812174D02*
X20463992Y-13831222D01*
X20463992Y-13831222D02*
X20463992Y-13850269D01*
X20463992Y-13850269D02*
X20368753Y-13869317D01*
X20540182Y-13926460D02*
X20559230Y-13935984D01*
X20559230Y-13935984D02*
X20597325Y-13935984D01*
X20597325Y-13935984D02*
X20616373Y-13926460D01*
X20616373Y-13926460D02*
X20625896Y-13907412D01*
X20625896Y-13907412D02*
X20625896Y-13897888D01*
X20625896Y-13897888D02*
X20616373Y-13878841D01*
X20616373Y-13878841D02*
X20597325Y-13869317D01*
X20597325Y-13869317D02*
X20568753Y-13869317D01*
X20568753Y-13869317D02*
X20549706Y-13859793D01*
X20549706Y-13859793D02*
X20540182Y-13840746D01*
X20540182Y-13840746D02*
X20540182Y-13831222D01*
X20540182Y-13831222D02*
X20549706Y-13812174D01*
X20549706Y-13812174D02*
X20568753Y-13802650D01*
X20568753Y-13802650D02*
X20597325Y-13802650D01*
X20597325Y-13802650D02*
X20616373Y-13812174D01*
X20692563Y-14012174D02*
X20702087Y-14002650D01*
X20702087Y-14002650D02*
X20721134Y-13974079D01*
X20721134Y-13974079D02*
X20730658Y-13955031D01*
X20730658Y-13955031D02*
X20740182Y-13926460D01*
X20740182Y-13926460D02*
X20749706Y-13878841D01*
X20749706Y-13878841D02*
X20749706Y-13840746D01*
X20749706Y-13840746D02*
X20740182Y-13793127D01*
X20740182Y-13793127D02*
X20730658Y-13764555D01*
X20730658Y-13764555D02*
X20721134Y-13745508D01*
X20721134Y-13745508D02*
X20702087Y-13716936D01*
X20702087Y-13716936D02*
X20692563Y-13707412D01*
D13*
X15895533Y-14161533D02*
X15895533Y-14055466D01*
X15789466Y-14055466D01*
X15789466Y-14161533D01*
X15895533Y-14161533D01*
D11*
X16283039Y-14199984D02*
X16168753Y-14199984D01*
X16225896Y-14199984D02*
X16225896Y-13999984D01*
X16225896Y-13999984D02*
X16206848Y-14028555D01*
X16206848Y-14028555D02*
X16187801Y-14047603D01*
X16187801Y-14047603D02*
X16168753Y-14057127D01*
X16368753Y-14180936D02*
X16378277Y-14190460D01*
X16378277Y-14190460D02*
X16368753Y-14199984D01*
X16368753Y-14199984D02*
X16359229Y-14190460D01*
X16359229Y-14190460D02*
X16368753Y-14180936D01*
X16368753Y-14180936D02*
X16368753Y-14199984D01*
X16559229Y-13999984D02*
X16463991Y-13999984D01*
X16463991Y-13999984D02*
X16454467Y-14095222D01*
X16454467Y-14095222D02*
X16463991Y-14085698D01*
X16463991Y-14085698D02*
X16483039Y-14076174D01*
X16483039Y-14076174D02*
X16530658Y-14076174D01*
X16530658Y-14076174D02*
X16549705Y-14085698D01*
X16549705Y-14085698D02*
X16559229Y-14095222D01*
X16559229Y-14095222D02*
X16568753Y-14114269D01*
X16568753Y-14114269D02*
X16568753Y-14161888D01*
X16568753Y-14161888D02*
X16559229Y-14180936D01*
X16559229Y-14180936D02*
X16549705Y-14190460D01*
X16549705Y-14190460D02*
X16530658Y-14199984D01*
X16530658Y-14199984D02*
X16483039Y-14199984D01*
X16483039Y-14199984D02*
X16463991Y-14190460D01*
X16463991Y-14190460D02*
X16454467Y-14180936D01*
X16692562Y-13999984D02*
X16711610Y-13999984D01*
X16711610Y-13999984D02*
X16730658Y-14009508D01*
X16730658Y-14009508D02*
X16740182Y-14019031D01*
X16740182Y-14019031D02*
X16749705Y-14038079D01*
X16749705Y-14038079D02*
X16759229Y-14076174D01*
X16759229Y-14076174D02*
X16759229Y-14123793D01*
X16759229Y-14123793D02*
X16749705Y-14161888D01*
X16749705Y-14161888D02*
X16740182Y-14180936D01*
X16740182Y-14180936D02*
X16730658Y-14190460D01*
X16730658Y-14190460D02*
X16711610Y-14199984D01*
X16711610Y-14199984D02*
X16692562Y-14199984D01*
X16692562Y-14199984D02*
X16673515Y-14190460D01*
X16673515Y-14190460D02*
X16663991Y-14180936D01*
X16663991Y-14180936D02*
X16654467Y-14161888D01*
X16654467Y-14161888D02*
X16644943Y-14123793D01*
X16644943Y-14123793D02*
X16644943Y-14076174D01*
X16644943Y-14076174D02*
X16654467Y-14038079D01*
X16654467Y-14038079D02*
X16663991Y-14019031D01*
X16663991Y-14019031D02*
X16673515Y-14009508D01*
X16673515Y-14009508D02*
X16692562Y-13999984D01*
X16883039Y-13999984D02*
X16902086Y-13999984D01*
X16902086Y-13999984D02*
X16921134Y-14009508D01*
X16921134Y-14009508D02*
X16930658Y-14019031D01*
X16930658Y-14019031D02*
X16940182Y-14038079D01*
X16940182Y-14038079D02*
X16949705Y-14076174D01*
X16949705Y-14076174D02*
X16949705Y-14123793D01*
X16949705Y-14123793D02*
X16940182Y-14161888D01*
X16940182Y-14161888D02*
X16930658Y-14180936D01*
X16930658Y-14180936D02*
X16921134Y-14190460D01*
X16921134Y-14190460D02*
X16902086Y-14199984D01*
X16902086Y-14199984D02*
X16883039Y-14199984D01*
X16883039Y-14199984D02*
X16863991Y-14190460D01*
X16863991Y-14190460D02*
X16854467Y-14180936D01*
X16854467Y-14180936D02*
X16844944Y-14161888D01*
X16844944Y-14161888D02*
X16835420Y-14123793D01*
X16835420Y-14123793D02*
X16835420Y-14076174D01*
X16835420Y-14076174D02*
X16844944Y-14038079D01*
X16844944Y-14038079D02*
X16854467Y-14019031D01*
X16854467Y-14019031D02*
X16863991Y-14009508D01*
X16863991Y-14009508D02*
X16883039Y-13999984D01*
X17035420Y-14199984D02*
X17035420Y-14066650D01*
X17035420Y-14085698D02*
X17044944Y-14076174D01*
X17044944Y-14076174D02*
X17063991Y-14066650D01*
X17063991Y-14066650D02*
X17092563Y-14066650D01*
X17092563Y-14066650D02*
X17111610Y-14076174D01*
X17111610Y-14076174D02*
X17121134Y-14095222D01*
X17121134Y-14095222D02*
X17121134Y-14199984D01*
X17121134Y-14095222D02*
X17130658Y-14076174D01*
X17130658Y-14076174D02*
X17149705Y-14066650D01*
X17149705Y-14066650D02*
X17178277Y-14066650D01*
X17178277Y-14066650D02*
X17197325Y-14076174D01*
X17197325Y-14076174D02*
X17206848Y-14095222D01*
X17206848Y-14095222D02*
X17206848Y-14199984D01*
X17302086Y-14199984D02*
X17302086Y-14066650D01*
X17302086Y-14085698D02*
X17311610Y-14076174D01*
X17311610Y-14076174D02*
X17330658Y-14066650D01*
X17330658Y-14066650D02*
X17359229Y-14066650D01*
X17359229Y-14066650D02*
X17378277Y-14076174D01*
X17378277Y-14076174D02*
X17387801Y-14095222D01*
X17387801Y-14095222D02*
X17387801Y-14199984D01*
X17387801Y-14095222D02*
X17397325Y-14076174D01*
X17397325Y-14076174D02*
X17416372Y-14066650D01*
X17416372Y-14066650D02*
X17444944Y-14066650D01*
X17444944Y-14066650D02*
X17463991Y-14076174D01*
X17463991Y-14076174D02*
X17473515Y-14095222D01*
X17473515Y-14095222D02*
X17473515Y-14199984D01*
X17863991Y-13990460D02*
X17692563Y-14247603D01*
X18121134Y-13999984D02*
X18140182Y-13999984D01*
X18140182Y-13999984D02*
X18159229Y-14009508D01*
X18159229Y-14009508D02*
X18168753Y-14019031D01*
X18168753Y-14019031D02*
X18178277Y-14038079D01*
X18178277Y-14038079D02*
X18187801Y-14076174D01*
X18187801Y-14076174D02*
X18187801Y-14123793D01*
X18187801Y-14123793D02*
X18178277Y-14161888D01*
X18178277Y-14161888D02*
X18168753Y-14180936D01*
X18168753Y-14180936D02*
X18159229Y-14190460D01*
X18159229Y-14190460D02*
X18140182Y-14199984D01*
X18140182Y-14199984D02*
X18121134Y-14199984D01*
X18121134Y-14199984D02*
X18102087Y-14190460D01*
X18102087Y-14190460D02*
X18092563Y-14180936D01*
X18092563Y-14180936D02*
X18083039Y-14161888D01*
X18083039Y-14161888D02*
X18073515Y-14123793D01*
X18073515Y-14123793D02*
X18073515Y-14076174D01*
X18073515Y-14076174D02*
X18083039Y-14038079D01*
X18083039Y-14038079D02*
X18092563Y-14019031D01*
X18092563Y-14019031D02*
X18102087Y-14009508D01*
X18102087Y-14009508D02*
X18121134Y-13999984D01*
X18273515Y-14180936D02*
X18283039Y-14190460D01*
X18283039Y-14190460D02*
X18273515Y-14199984D01*
X18273515Y-14199984D02*
X18263991Y-14190460D01*
X18263991Y-14190460D02*
X18273515Y-14180936D01*
X18273515Y-14180936D02*
X18273515Y-14199984D01*
X18406848Y-13999984D02*
X18425896Y-13999984D01*
X18425896Y-13999984D02*
X18444944Y-14009508D01*
X18444944Y-14009508D02*
X18454468Y-14019031D01*
X18454468Y-14019031D02*
X18463991Y-14038079D01*
X18463991Y-14038079D02*
X18473515Y-14076174D01*
X18473515Y-14076174D02*
X18473515Y-14123793D01*
X18473515Y-14123793D02*
X18463991Y-14161888D01*
X18463991Y-14161888D02*
X18454468Y-14180936D01*
X18454468Y-14180936D02*
X18444944Y-14190460D01*
X18444944Y-14190460D02*
X18425896Y-14199984D01*
X18425896Y-14199984D02*
X18406848Y-14199984D01*
X18406848Y-14199984D02*
X18387801Y-14190460D01*
X18387801Y-14190460D02*
X18378277Y-14180936D01*
X18378277Y-14180936D02*
X18368753Y-14161888D01*
X18368753Y-14161888D02*
X18359229Y-14123793D01*
X18359229Y-14123793D02*
X18359229Y-14076174D01*
X18359229Y-14076174D02*
X18368753Y-14038079D01*
X18368753Y-14038079D02*
X18378277Y-14019031D01*
X18378277Y-14019031D02*
X18387801Y-14009508D01*
X18387801Y-14009508D02*
X18406848Y-13999984D01*
X18654468Y-13999984D02*
X18559229Y-13999984D01*
X18559229Y-13999984D02*
X18549706Y-14095222D01*
X18549706Y-14095222D02*
X18559229Y-14085698D01*
X18559229Y-14085698D02*
X18578277Y-14076174D01*
X18578277Y-14076174D02*
X18625896Y-14076174D01*
X18625896Y-14076174D02*
X18644944Y-14085698D01*
X18644944Y-14085698D02*
X18654468Y-14095222D01*
X18654468Y-14095222D02*
X18663991Y-14114269D01*
X18663991Y-14114269D02*
X18663991Y-14161888D01*
X18663991Y-14161888D02*
X18654468Y-14180936D01*
X18654468Y-14180936D02*
X18644944Y-14190460D01*
X18644944Y-14190460D02*
X18625896Y-14199984D01*
X18625896Y-14199984D02*
X18578277Y-14199984D01*
X18578277Y-14199984D02*
X18559229Y-14190460D01*
X18559229Y-14190460D02*
X18549706Y-14180936D01*
X18759229Y-14199984D02*
X18797325Y-14199984D01*
X18797325Y-14199984D02*
X18816372Y-14190460D01*
X18816372Y-14190460D02*
X18825896Y-14180936D01*
X18825896Y-14180936D02*
X18844944Y-14152365D01*
X18844944Y-14152365D02*
X18854468Y-14114269D01*
X18854468Y-14114269D02*
X18854468Y-14038079D01*
X18854468Y-14038079D02*
X18844944Y-14019031D01*
X18844944Y-14019031D02*
X18835420Y-14009508D01*
X18835420Y-14009508D02*
X18816372Y-13999984D01*
X18816372Y-13999984D02*
X18778277Y-13999984D01*
X18778277Y-13999984D02*
X18759229Y-14009508D01*
X18759229Y-14009508D02*
X18749706Y-14019031D01*
X18749706Y-14019031D02*
X18740182Y-14038079D01*
X18740182Y-14038079D02*
X18740182Y-14085698D01*
X18740182Y-14085698D02*
X18749706Y-14104746D01*
X18749706Y-14104746D02*
X18759229Y-14114269D01*
X18759229Y-14114269D02*
X18778277Y-14123793D01*
X18778277Y-14123793D02*
X18816372Y-14123793D01*
X18816372Y-14123793D02*
X18835420Y-14114269D01*
X18835420Y-14114269D02*
X18844944Y-14104746D01*
X18844944Y-14104746D02*
X18854468Y-14085698D01*
X19044944Y-14199984D02*
X18930658Y-14199984D01*
X18987801Y-14199984D02*
X18987801Y-13999984D01*
X18987801Y-13999984D02*
X18968753Y-14028555D01*
X18968753Y-14028555D02*
X18949706Y-14047603D01*
X18949706Y-14047603D02*
X18930658Y-14057127D01*
X19121134Y-13999984D02*
X19121134Y-14038079D01*
X19197325Y-13999984D02*
X19197325Y-14038079D01*
X19492563Y-14276174D02*
X19483039Y-14266650D01*
X19483039Y-14266650D02*
X19463991Y-14238079D01*
X19463991Y-14238079D02*
X19454468Y-14219031D01*
X19454468Y-14219031D02*
X19444944Y-14190460D01*
X19444944Y-14190460D02*
X19435420Y-14142841D01*
X19435420Y-14142841D02*
X19435420Y-14104746D01*
X19435420Y-14104746D02*
X19444944Y-14057127D01*
X19444944Y-14057127D02*
X19454468Y-14028555D01*
X19454468Y-14028555D02*
X19463991Y-14009508D01*
X19463991Y-14009508D02*
X19483039Y-13980936D01*
X19483039Y-13980936D02*
X19492563Y-13971412D01*
X19597325Y-14085698D02*
X19578277Y-14076174D01*
X19578277Y-14076174D02*
X19568753Y-14066650D01*
X19568753Y-14066650D02*
X19559230Y-14047603D01*
X19559230Y-14047603D02*
X19559230Y-14038079D01*
X19559230Y-14038079D02*
X19568753Y-14019031D01*
X19568753Y-14019031D02*
X19578277Y-14009508D01*
X19578277Y-14009508D02*
X19597325Y-13999984D01*
X19597325Y-13999984D02*
X19635420Y-13999984D01*
X19635420Y-13999984D02*
X19654468Y-14009508D01*
X19654468Y-14009508D02*
X19663991Y-14019031D01*
X19663991Y-14019031D02*
X19673515Y-14038079D01*
X19673515Y-14038079D02*
X19673515Y-14047603D01*
X19673515Y-14047603D02*
X19663991Y-14066650D01*
X19663991Y-14066650D02*
X19654468Y-14076174D01*
X19654468Y-14076174D02*
X19635420Y-14085698D01*
X19635420Y-14085698D02*
X19597325Y-14085698D01*
X19597325Y-14085698D02*
X19578277Y-14095222D01*
X19578277Y-14095222D02*
X19568753Y-14104746D01*
X19568753Y-14104746D02*
X19559230Y-14123793D01*
X19559230Y-14123793D02*
X19559230Y-14161888D01*
X19559230Y-14161888D02*
X19568753Y-14180936D01*
X19568753Y-14180936D02*
X19578277Y-14190460D01*
X19578277Y-14190460D02*
X19597325Y-14199984D01*
X19597325Y-14199984D02*
X19635420Y-14199984D01*
X19635420Y-14199984D02*
X19654468Y-14190460D01*
X19654468Y-14190460D02*
X19663991Y-14180936D01*
X19663991Y-14180936D02*
X19673515Y-14161888D01*
X19673515Y-14161888D02*
X19673515Y-14123793D01*
X19673515Y-14123793D02*
X19663991Y-14104746D01*
X19663991Y-14104746D02*
X19654468Y-14095222D01*
X19654468Y-14095222D02*
X19635420Y-14085698D01*
X19911611Y-14199984D02*
X19911611Y-13999984D01*
X19997325Y-14199984D02*
X19997325Y-14095222D01*
X19997325Y-14095222D02*
X19987801Y-14076174D01*
X19987801Y-14076174D02*
X19968753Y-14066650D01*
X19968753Y-14066650D02*
X19940182Y-14066650D01*
X19940182Y-14066650D02*
X19921134Y-14076174D01*
X19921134Y-14076174D02*
X19911611Y-14085698D01*
X20121134Y-14199984D02*
X20102087Y-14190460D01*
X20102087Y-14190460D02*
X20092563Y-14180936D01*
X20092563Y-14180936D02*
X20083039Y-14161888D01*
X20083039Y-14161888D02*
X20083039Y-14104746D01*
X20083039Y-14104746D02*
X20092563Y-14085698D01*
X20092563Y-14085698D02*
X20102087Y-14076174D01*
X20102087Y-14076174D02*
X20121134Y-14066650D01*
X20121134Y-14066650D02*
X20149706Y-14066650D01*
X20149706Y-14066650D02*
X20168753Y-14076174D01*
X20168753Y-14076174D02*
X20178277Y-14085698D01*
X20178277Y-14085698D02*
X20187801Y-14104746D01*
X20187801Y-14104746D02*
X20187801Y-14161888D01*
X20187801Y-14161888D02*
X20178277Y-14180936D01*
X20178277Y-14180936D02*
X20168753Y-14190460D01*
X20168753Y-14190460D02*
X20149706Y-14199984D01*
X20149706Y-14199984D02*
X20121134Y-14199984D01*
X20302087Y-14199984D02*
X20283039Y-14190460D01*
X20283039Y-14190460D02*
X20273515Y-14171412D01*
X20273515Y-14171412D02*
X20273515Y-13999984D01*
X20454468Y-14190460D02*
X20435420Y-14199984D01*
X20435420Y-14199984D02*
X20397325Y-14199984D01*
X20397325Y-14199984D02*
X20378277Y-14190460D01*
X20378277Y-14190460D02*
X20368753Y-14171412D01*
X20368753Y-14171412D02*
X20368753Y-14095222D01*
X20368753Y-14095222D02*
X20378277Y-14076174D01*
X20378277Y-14076174D02*
X20397325Y-14066650D01*
X20397325Y-14066650D02*
X20435420Y-14066650D01*
X20435420Y-14066650D02*
X20454468Y-14076174D01*
X20454468Y-14076174D02*
X20463992Y-14095222D01*
X20463992Y-14095222D02*
X20463992Y-14114269D01*
X20463992Y-14114269D02*
X20368753Y-14133317D01*
X20540182Y-14190460D02*
X20559230Y-14199984D01*
X20559230Y-14199984D02*
X20597325Y-14199984D01*
X20597325Y-14199984D02*
X20616373Y-14190460D01*
X20616373Y-14190460D02*
X20625896Y-14171412D01*
X20625896Y-14171412D02*
X20625896Y-14161888D01*
X20625896Y-14161888D02*
X20616373Y-14142841D01*
X20616373Y-14142841D02*
X20597325Y-14133317D01*
X20597325Y-14133317D02*
X20568753Y-14133317D01*
X20568753Y-14133317D02*
X20549706Y-14123793D01*
X20549706Y-14123793D02*
X20540182Y-14104746D01*
X20540182Y-14104746D02*
X20540182Y-14095222D01*
X20540182Y-14095222D02*
X20549706Y-14076174D01*
X20549706Y-14076174D02*
X20568753Y-14066650D01*
X20568753Y-14066650D02*
X20597325Y-14066650D01*
X20597325Y-14066650D02*
X20616373Y-14076174D01*
X20692563Y-14276174D02*
X20702087Y-14266650D01*
X20702087Y-14266650D02*
X20721134Y-14238079D01*
X20721134Y-14238079D02*
X20730658Y-14219031D01*
X20730658Y-14219031D02*
X20740182Y-14190460D01*
X20740182Y-14190460D02*
X20749706Y-14142841D01*
X20749706Y-14142841D02*
X20749706Y-14104746D01*
X20749706Y-14104746D02*
X20740182Y-14057127D01*
X20740182Y-14057127D02*
X20730658Y-14028555D01*
X20730658Y-14028555D02*
X20721134Y-14009508D01*
X20721134Y-14009508D02*
X20702087Y-13980936D01*
X20702087Y-13980936D02*
X20692563Y-13971412D01*
M02*
